<svg width="390" height="84" viewBox="0 0 390 84" fill="none" xmlns="http://www.w3.org/2000/svg">
<g clip-path="url(#clip0_1553_14375)">
<rect y="1" width="390" height="83" fill="#595977" fill-opacity="0.25"/>
</g>
<rect x="-0.5" y="0.5" width="391" height="84" stroke="#595977"/>
<path d="M35.4719 46V38.7273H36.5692V41.8878H40.1949V38.7273H41.2957V46H40.1949V42.8288H36.5692V46H35.4719ZM45.1061 46.1101C44.5947 46.1101 44.1485 45.9929 43.7673 45.7585C43.3862 45.5241 43.0902 45.1963 42.8795 44.7749C42.6688 44.3535 42.5635 43.861 42.5635 43.2976C42.5635 42.7318 42.6688 42.237 42.8795 41.8132C43.0902 41.3894 43.3862 41.0604 43.7673 40.826C44.1485 40.5916 44.5947 40.4744 45.1061 40.4744C45.6175 40.4744 46.0637 40.5916 46.4449 40.826C46.826 41.0604 47.1219 41.3894 47.3326 41.8132C47.5433 42.237 47.6487 42.7318 47.6487 43.2976C47.6487 43.861 47.5433 44.3535 47.3326 44.7749C47.1219 45.1963 46.826 45.5241 46.4449 45.7585C46.0637 45.9929 45.6175 46.1101 45.1061 46.1101ZM45.1096 45.2188C45.4411 45.2188 45.7157 45.1312 45.9335 44.956C46.1513 44.7808 46.3123 44.5476 46.4165 44.2564C46.523 43.9652 46.5763 43.6444 46.5763 43.294C46.5763 42.946 46.523 42.6264 46.4165 42.3352C46.3123 42.0417 46.1513 41.8061 45.9335 41.6286C45.7157 41.451 45.4411 41.3622 45.1096 41.3622C44.7758 41.3622 44.4988 41.451 44.2787 41.6286C44.0609 41.8061 43.8987 42.0417 43.7922 42.3352C43.688 42.6264 43.6359 42.946 43.6359 43.294C43.6359 43.6444 43.688 43.9652 43.7922 44.2564C43.8987 44.5476 44.0609 44.7808 44.2787 44.956C44.4988 45.1312 44.7758 45.2188 45.1096 45.2188ZM48.8339 46V40.5455H49.8531V41.4332H49.9205C50.0342 41.1326 50.22 40.8982 50.4781 40.7301C50.7361 40.5597 51.0451 40.4744 51.4049 40.4744C51.7695 40.4744 52.0749 40.5597 52.3211 40.7301C52.5697 40.9006 52.7532 41.1349 52.8715 41.4332H52.9284C53.0586 41.142 53.2657 40.91 53.5498 40.7372C53.8339 40.562 54.1724 40.4744 54.5654 40.4744C55.0602 40.4744 55.4639 40.6295 55.7764 40.9396C56.0912 41.2498 56.2487 41.7173 56.2487 42.3423V46H55.1869V42.4418C55.1869 42.0724 55.0863 41.8049 54.885 41.6392C54.6838 41.4735 54.4435 41.3906 54.1641 41.3906C53.8185 41.3906 53.5498 41.4972 53.358 41.7102C53.1663 41.9209 53.0704 42.192 53.0704 42.5234V46H52.0122V42.3743C52.0122 42.0784 51.9198 41.8404 51.7352 41.6605C51.5505 41.4806 51.3102 41.3906 51.0143 41.3906C50.8131 41.3906 50.6272 41.4439 50.4568 41.5504C50.2887 41.6546 50.1525 41.8002 50.0484 41.9872C49.9466 42.1742 49.8957 42.3909 49.8957 42.6371V46H48.8339ZM60.0226 46.1101C59.4852 46.1101 59.0224 45.9953 58.6341 45.7656C58.2483 45.5336 57.95 45.2081 57.7393 44.7891C57.5309 44.3677 57.4268 43.8741 57.4268 43.3082C57.4268 42.7495 57.5309 42.2571 57.7393 41.831C57.95 41.4048 58.2435 41.0722 58.6199 40.8331C58.9987 40.594 59.4414 40.4744 59.9481 40.4744C60.2558 40.4744 60.5541 40.5253 60.8429 40.6271C61.1318 40.7289 61.391 40.8887 61.6206 41.1065C61.8503 41.3243 62.0314 41.6072 62.164 41.9553C62.2965 42.3009 62.3628 42.7211 62.3628 43.2159V43.5923H58.0269V42.7969H61.3224C61.3224 42.5175 61.2655 42.2701 61.1519 42.0547C61.0383 41.8369 60.8785 41.6652 60.6725 41.5398C60.4689 41.4143 60.2298 41.3516 59.9552 41.3516C59.6569 41.3516 59.3965 41.425 59.1739 41.5717C58.9537 41.7161 58.7833 41.9055 58.6625 42.1399C58.5442 42.3719 58.485 42.6241 58.485 42.8963V43.5178C58.485 43.8823 58.5489 44.1925 58.6768 44.4482C58.807 44.7038 58.9881 44.8991 59.2201 45.0341C59.4521 45.1667 59.7232 45.233 60.0333 45.233C60.2345 45.233 60.418 45.2045 60.5837 45.1477C60.7494 45.0885 60.8927 45.0009 61.0134 44.8849C61.1341 44.7689 61.2265 44.6257 61.2904 44.4553L62.2954 44.6364C62.2149 44.9323 62.0705 45.1915 61.8621 45.4141C61.6562 45.6342 61.3969 45.8059 61.0844 45.929C60.7743 46.0497 60.4204 46.1101 60.0226 46.1101Z" fill="white"/>
<path fill-rule="evenodd" clip-rule="evenodd" d="M57.7738 18.487H51.7969V18.9082C51.7969 19.7126 51.4906 20.4407 50.9156 21.0157C50.3406 21.5907 49.6131 21.897 48.8081 21.897C48.0037 21.897 47.2756 21.5907 46.7006 21.0157C46.1256 20.4407 45.8194 19.7132 45.8194 18.9082V18.487H39.8425L42.8313 9.98135H54.785L57.7738 18.487ZM58.6169 18.487L55.2069 9.1001H42.41L39 18.487V26.1882H58.6169V18.487Z" fill="white"/>
<path d="M114.139 38.7273H115.386L117.286 42.0334H117.364L119.264 38.7273H120.51L117.872 43.1449V46H116.778V43.1449L114.139 38.7273ZM122.86 46.1101C122.349 46.1101 121.902 45.9929 121.521 45.7585C121.14 45.5241 120.844 45.1963 120.633 44.7749C120.423 44.3535 120.317 43.861 120.317 43.2976C120.317 42.7318 120.423 42.237 120.633 41.8132C120.844 41.3894 121.14 41.0604 121.521 40.826C121.902 40.5916 122.349 40.4744 122.86 40.4744C123.371 40.4744 123.818 40.5916 124.199 40.826C124.58 41.0604 124.876 41.3894 125.087 41.8132C125.297 42.237 125.403 42.7318 125.403 43.2976C125.403 43.861 125.297 44.3535 125.087 44.7749C124.876 45.1963 124.58 45.5241 124.199 45.7585C123.818 45.9929 123.371 46.1101 122.86 46.1101ZM122.864 45.2188C123.195 45.2188 123.47 45.1312 123.687 44.956C123.905 44.7808 124.066 44.5476 124.17 44.2564C124.277 43.9652 124.33 43.6444 124.33 43.294C124.33 42.946 124.277 42.6264 124.17 42.3352C124.066 42.0417 123.905 41.8061 123.687 41.6286C123.47 41.451 123.195 41.3622 122.864 41.3622C122.53 41.3622 122.253 41.451 122.033 41.6286C121.815 41.8061 121.653 42.0417 121.546 42.3352C121.442 42.6264 121.39 42.946 121.39 43.294C121.39 43.6444 121.442 43.9652 121.546 44.2564C121.653 44.5476 121.815 44.7808 122.033 44.956C122.253 45.1312 122.53 45.2188 122.864 45.2188ZM130.043 43.7379V40.5455H131.108V46H130.064V45.0554H130.008C129.882 45.3466 129.681 45.5893 129.404 45.7834C129.129 45.9751 128.787 46.071 128.378 46.071C128.027 46.071 127.717 45.9941 127.447 45.8402C127.18 45.6839 126.969 45.4531 126.815 45.1477C126.664 44.8423 126.588 44.4647 126.588 44.0149V40.5455H127.65V43.8871C127.65 44.2588 127.753 44.5547 127.959 44.7749C128.165 44.995 128.432 45.1051 128.761 45.1051C128.96 45.1051 129.158 45.0554 129.354 44.956C129.553 44.8565 129.718 44.7062 129.848 44.505C129.98 44.3037 130.045 44.0481 130.043 43.7379ZM132.535 46V40.5455H133.561V41.4119H133.618C133.718 41.1184 133.893 40.8875 134.144 40.7195C134.397 40.549 134.684 40.4638 135.003 40.4638C135.069 40.4638 135.148 40.4661 135.237 40.4709C135.33 40.4756 135.402 40.4815 135.454 40.4886V41.5043C135.411 41.4924 135.336 41.4794 135.227 41.4652C135.118 41.4486 135.009 41.4403 134.9 41.4403C134.649 41.4403 134.425 41.4936 134.229 41.6001C134.035 41.7043 133.881 41.8499 133.767 42.0369C133.654 42.2216 133.597 42.4323 133.597 42.669V46H132.535ZM143.107 41.8771L142.144 42.0476C142.104 41.9245 142.04 41.8073 141.953 41.696C141.867 41.5848 141.751 41.4936 141.605 41.4226C141.458 41.3516 141.274 41.3161 141.054 41.3161C140.754 41.3161 140.503 41.3835 140.301 41.5185C140.1 41.651 140 41.8227 140 42.0334C140 42.2157 140.067 42.3625 140.202 42.4737C140.337 42.585 140.555 42.6761 140.855 42.7472L141.722 42.946C142.224 43.062 142.598 43.2408 142.844 43.4822C143.09 43.7237 143.213 44.0374 143.213 44.4233C143.213 44.75 143.119 45.0412 142.929 45.2969C142.742 45.5502 142.481 45.7491 142.144 45.8935C141.811 46.0379 141.424 46.1101 140.983 46.1101C140.372 46.1101 139.874 45.9799 139.488 45.7195C139.102 45.4567 138.866 45.0838 138.778 44.6009L139.804 44.4446C139.868 44.7121 140 44.9145 140.198 45.0518C140.397 45.1868 140.657 45.2543 140.976 45.2543C141.324 45.2543 141.602 45.1821 141.811 45.0376C142.019 44.8909 142.123 44.7121 142.123 44.5014C142.123 44.331 142.059 44.1877 141.931 44.0717C141.806 43.9557 141.613 43.8681 141.353 43.8089L140.429 43.6065C139.92 43.4905 139.544 43.3059 139.3 43.0526C139.059 42.7992 138.938 42.4785 138.938 42.0902C138.938 41.7682 139.028 41.4865 139.208 41.245C139.388 41.0036 139.636 40.8153 139.953 40.6804C140.271 40.5431 140.634 40.4744 141.044 40.4744C141.633 40.4744 142.097 40.6023 142.436 40.858C142.774 41.1113 142.998 41.451 143.107 41.8771ZM146.732 46.1101C146.194 46.1101 145.731 45.9953 145.343 45.7656C144.957 45.5336 144.659 45.2081 144.448 44.7891C144.24 44.3677 144.136 43.8741 144.136 43.3082C144.136 42.7495 144.24 42.2571 144.448 41.831C144.659 41.4048 144.952 41.0722 145.329 40.8331C145.708 40.594 146.15 40.4744 146.657 40.4744C146.965 40.4744 147.263 40.5253 147.552 40.6271C147.841 40.7289 148.1 40.8887 148.33 41.1065C148.559 41.3243 148.74 41.6072 148.873 41.9553C149.006 42.3009 149.072 42.7211 149.072 43.2159V43.5923H144.736V42.7969H148.031C148.031 42.5175 147.975 42.2701 147.861 42.0547C147.747 41.8369 147.587 41.6652 147.381 41.5398C147.178 41.4143 146.939 41.3516 146.664 41.3516C146.366 41.3516 146.105 41.425 145.883 41.5717C145.663 41.7161 145.492 41.9055 145.372 42.1399C145.253 42.3719 145.194 42.6241 145.194 42.8963V43.5178C145.194 43.8823 145.258 44.1925 145.386 44.4482C145.516 44.7038 145.697 44.8991 145.929 45.0341C146.161 45.1667 146.432 45.233 146.742 45.233C146.944 45.233 147.127 45.2045 147.293 45.1477C147.458 45.0885 147.602 45.0009 147.722 44.8849C147.843 44.7689 147.935 44.6257 147.999 44.4553L149.004 44.6364C148.924 44.9323 148.779 45.1915 148.571 45.4141C148.365 45.6342 148.106 45.8059 147.793 45.929C147.483 46.0497 147.129 46.1101 146.732 46.1101ZM150.25 46V40.5455H151.276V41.4119H151.333C151.432 41.1184 151.608 40.8875 151.859 40.7195C152.112 40.549 152.398 40.4638 152.718 40.4638C152.784 40.4638 152.862 40.4661 152.952 40.4709C153.045 40.4756 153.117 40.4815 153.169 40.4886V41.5043C153.126 41.4924 153.051 41.4794 152.942 41.4652C152.833 41.4486 152.724 41.4403 152.615 41.4403C152.364 41.4403 152.14 41.4936 151.944 41.6001C151.75 41.7043 151.596 41.8499 151.482 42.0369C151.369 42.2216 151.312 42.4323 151.312 42.669V46H150.25ZM158.92 40.5455L156.942 46H155.806L153.824 40.5455H154.964L156.345 44.7429H156.402L157.78 40.5455H158.92ZM159.918 46V40.5455H160.98V46H159.918ZM160.454 39.7038C160.269 39.7038 160.111 39.6423 159.978 39.5192C159.848 39.3937 159.783 39.2446 159.783 39.0717C159.783 38.8965 159.848 38.7474 159.978 38.6243C160.111 38.4988 160.269 38.4361 160.454 38.4361C160.639 38.4361 160.796 38.4988 160.926 38.6243C161.059 38.7474 161.125 38.8965 161.125 39.0717C161.125 39.2446 161.059 39.3937 160.926 39.5192C160.796 39.6423 160.639 39.7038 160.454 39.7038ZM164.706 46.1101C164.178 46.1101 163.723 45.9905 163.342 45.7514C162.963 45.5099 162.672 45.1773 162.468 44.7536C162.265 44.3298 162.163 43.8445 162.163 43.2976C162.163 42.7436 162.267 42.2547 162.476 41.831C162.684 41.4048 162.977 41.0722 163.356 40.8331C163.735 40.594 164.181 40.4744 164.695 40.4744C165.109 40.4744 165.479 40.5514 165.803 40.7053C166.127 40.8568 166.389 41.0698 166.588 41.3445C166.789 41.6191 166.909 41.9399 166.946 42.3068H165.913C165.856 42.0511 165.726 41.831 165.522 41.6463C165.321 41.4616 165.051 41.3693 164.713 41.3693C164.417 41.3693 164.158 41.4474 163.935 41.6037C163.715 41.7576 163.543 41.9777 163.42 42.2642C163.297 42.5483 163.236 42.8845 163.236 43.2727C163.236 43.6705 163.296 44.0137 163.417 44.3026C163.537 44.5914 163.708 44.8151 163.928 44.9737C164.151 45.1323 164.412 45.2116 164.713 45.2116C164.914 45.2116 165.096 45.175 165.26 45.1016C165.425 45.0258 165.564 44.9181 165.675 44.7784C165.789 44.6387 165.868 44.4706 165.913 44.2741H166.946C166.909 44.6269 166.794 44.9418 166.602 45.2188C166.41 45.4957 166.153 45.7135 165.831 45.8722C165.512 46.0308 165.137 46.1101 164.706 46.1101ZM170.433 46.1101C169.895 46.1101 169.433 45.9953 169.044 45.7656C168.658 45.5336 168.36 45.2081 168.149 44.7891C167.941 44.3677 167.837 43.8741 167.837 43.3082C167.837 42.7495 167.941 42.2571 168.149 41.831C168.36 41.4048 168.654 41.0722 169.03 40.8331C169.409 40.594 169.852 40.4744 170.358 40.4744C170.666 40.4744 170.964 40.5253 171.253 40.6271C171.542 40.7289 171.801 40.8887 172.031 41.1065C172.26 41.3243 172.442 41.6072 172.574 41.9553C172.707 42.3009 172.773 42.7211 172.773 43.2159V43.5923H168.437V42.7969H171.733C171.733 42.5175 171.676 42.2701 171.562 42.0547C171.448 41.8369 171.289 41.6652 171.083 41.5398C170.879 41.4143 170.64 41.3516 170.365 41.3516C170.067 41.3516 169.807 41.425 169.584 41.5717C169.364 41.7161 169.193 41.9055 169.073 42.1399C168.954 42.3719 168.895 42.6241 168.895 42.8963V43.5178C168.895 43.8823 168.959 44.1925 169.087 44.4482C169.217 44.7038 169.398 44.8991 169.63 45.0341C169.862 45.1667 170.133 45.233 170.443 45.233C170.645 45.233 170.828 45.2045 170.994 45.1477C171.16 45.0885 171.303 45.0009 171.424 44.8849C171.544 44.7689 171.637 44.6257 171.701 44.4553L172.706 44.6364C172.625 44.9323 172.481 45.1915 172.272 45.4141C172.066 45.6342 171.807 45.8059 171.495 45.929C171.184 46.0497 170.831 46.1101 170.433 46.1101ZM178.038 41.8771L177.076 42.0476C177.036 41.9245 176.972 41.8073 176.884 41.696C176.799 41.5848 176.683 41.4936 176.536 41.4226C176.39 41.3516 176.206 41.3161 175.986 41.3161C175.685 41.3161 175.434 41.3835 175.233 41.5185C175.032 41.651 174.931 41.8227 174.931 42.0334C174.931 42.2157 174.999 42.3625 175.134 42.4737C175.269 42.585 175.486 42.6761 175.787 42.7472L176.653 42.946C177.155 43.062 177.529 43.2408 177.776 43.4822C178.022 43.7237 178.145 44.0374 178.145 44.4233C178.145 44.75 178.05 45.0412 177.861 45.2969C177.674 45.5502 177.412 45.7491 177.076 45.8935C176.742 46.0379 176.355 46.1101 175.915 46.1101C175.304 46.1101 174.806 45.9799 174.42 45.7195C174.034 45.4567 173.797 45.0838 173.71 44.6009L174.736 44.4446C174.8 44.7121 174.931 44.9145 175.13 45.0518C175.329 45.1868 175.588 45.2543 175.908 45.2543C176.256 45.2543 176.534 45.1821 176.742 45.0376C176.951 44.8909 177.055 44.7121 177.055 44.5014C177.055 44.331 176.991 44.1877 176.863 44.0717C176.738 43.9557 176.545 43.8681 176.284 43.8089L175.361 43.6065C174.852 43.4905 174.475 43.3059 174.232 43.0526C173.99 42.7992 173.869 42.4785 173.869 42.0902C173.869 41.7682 173.959 41.4865 174.139 41.245C174.319 41.0036 174.568 40.8153 174.885 40.6804C175.202 40.5431 175.566 40.4744 175.975 40.4744C176.565 40.4744 177.029 40.6023 177.367 40.858C177.706 41.1113 177.93 41.451 178.038 41.8771Z" fill="#BDBCC0"/>
<path fill-rule="evenodd" clip-rule="evenodd" d="M156.618 13.7782C156.618 14.8894 156.311 16.0388 155.659 17.3032C155.007 18.5675 154.28 19.6788 153.514 20.56C152.709 21.4413 151.789 22.3994 150.679 23.3569C149.568 24.3144 148.839 24.9663 148.456 25.2344C148.035 25.5025 147.652 25.8094 147.269 26.0775L146.809 26.3457L146.349 26.0394C145.966 25.7713 145.583 25.4644 145.199 25.1963C144.778 24.9282 144.05 24.2769 142.939 23.3188C141.828 22.3607 140.908 21.4032 140.142 20.5219C139.338 19.6407 138.647 18.5682 137.996 17.3038C137.345 16.0394 137 14.89 137 13.7788C137 12.1313 137.46 10.8288 138.418 9.79442C139.337 8.79817 140.563 8.30005 142.096 8.30005C143.781 8.30005 145.353 9.1813 146.808 10.9438C148.264 9.1813 149.835 8.30005 151.521 8.30005C153.053 8.30005 154.279 8.79817 155.237 9.79442C156.156 10.8288 156.616 12.1313 156.616 13.7788L156.618 13.7782Z" fill="#BDBCC0"/>
<path d="M236.191 40.6378C236.154 40.3016 235.997 40.0412 235.723 39.8565C235.448 39.6695 235.102 39.576 234.686 39.576C234.387 39.576 234.129 39.6233 233.912 39.718C233.694 39.8104 233.524 39.9382 233.404 40.1016C233.285 40.2625 233.226 40.446 233.226 40.652C233.226 40.8248 233.266 40.974 233.347 41.0994C233.43 41.2249 233.538 41.3303 233.67 41.4155C233.805 41.4983 233.949 41.5682 234.103 41.625C234.257 41.6795 234.405 41.7244 234.547 41.7599L235.257 41.9446C235.489 42.0014 235.727 42.0784 235.971 42.1754C236.215 42.2725 236.441 42.4003 236.649 42.5589C236.858 42.7176 237.026 42.9141 237.154 43.1484C237.284 43.3828 237.349 43.6634 237.349 43.9901C237.349 44.402 237.243 44.7678 237.029 45.0874C236.819 45.407 236.512 45.6591 236.11 45.8438C235.71 46.0284 235.225 46.1207 234.657 46.1207C234.113 46.1207 233.642 46.0343 233.244 45.8615C232.846 45.6887 232.535 45.4437 232.31 45.1264C232.085 44.8068 231.961 44.428 231.937 43.9901H233.038C233.059 44.2528 233.145 44.4718 233.294 44.647C233.445 44.8198 233.638 44.9489 233.873 45.0341C234.109 45.117 234.368 45.1584 234.65 45.1584C234.96 45.1584 235.236 45.1098 235.478 45.0128C235.721 44.9134 235.913 44.776 236.053 44.6009C236.193 44.4233 236.262 44.2161 236.262 43.9794C236.262 43.764 236.201 43.5876 236.078 43.4503C235.957 43.313 235.792 43.1993 235.584 43.1094C235.378 43.0194 235.145 42.9401 234.885 42.8714L234.025 42.6371C233.443 42.4785 232.981 42.2453 232.64 41.9375C232.302 41.6297 232.132 41.2225 232.132 40.7159C232.132 40.2969 232.246 39.9311 232.473 39.6186C232.701 39.3061 233.008 39.0634 233.397 38.8906C233.785 38.7154 234.223 38.6278 234.711 38.6278C235.203 38.6278 235.637 38.7143 236.014 38.8871C236.393 39.0599 236.691 39.2978 236.909 39.6009C237.127 39.9015 237.24 40.2472 237.25 40.6378H236.191ZM239.637 42.7614V46H238.575V38.7273H239.623V41.4332H239.69C239.818 41.1397 240.013 40.9065 240.276 40.7337C240.539 40.5608 240.882 40.4744 241.306 40.4744C241.68 40.4744 242.007 40.5514 242.286 40.7053C242.568 40.8591 242.786 41.0888 242.939 41.3942C243.096 41.6972 243.174 42.076 243.174 42.5305V46H242.112V42.6584C242.112 42.2583 242.009 41.9482 241.803 41.728C241.597 41.5054 241.311 41.3942 240.944 41.3942C240.693 41.3942 240.468 41.4474 240.269 41.554C240.072 41.6605 239.917 41.8168 239.804 42.0227C239.693 42.2263 239.637 42.4725 239.637 42.7614ZM246.888 46.1101C246.377 46.1101 245.931 45.9929 245.55 45.7585C245.168 45.5241 244.872 45.1963 244.662 44.7749C244.451 44.3535 244.346 43.861 244.346 43.2976C244.346 42.7318 244.451 42.237 244.662 41.8132C244.872 41.3894 245.168 41.0604 245.55 40.826C245.931 40.5916 246.377 40.4744 246.888 40.4744C247.4 40.4744 247.846 40.5916 248.227 40.826C248.608 41.0604 248.904 41.3894 249.115 41.8132C249.326 42.237 249.431 42.7318 249.431 43.2976C249.431 43.861 249.326 44.3535 249.115 44.7749C248.904 45.1963 248.608 45.5241 248.227 45.7585C247.846 45.9929 247.4 46.1101 246.888 46.1101ZM246.892 45.2188C247.223 45.2188 247.498 45.1312 247.716 44.956C247.934 44.7808 248.095 44.5476 248.199 44.2564C248.305 43.9652 248.358 43.6444 248.358 43.294C248.358 42.946 248.305 42.6264 248.199 42.3352C248.095 42.0417 247.934 41.8061 247.716 41.6286C247.498 41.451 247.223 41.3622 246.892 41.3622C246.558 41.3622 246.281 41.451 246.061 41.6286C245.843 41.8061 245.681 42.0417 245.574 42.3352C245.47 42.6264 245.418 42.946 245.418 43.294C245.418 43.6444 245.47 43.9652 245.574 44.2564C245.681 44.5476 245.843 44.7808 246.061 44.956C246.281 45.1312 246.558 45.2188 246.892 45.2188ZM250.616 48.0455V40.5455H251.653V41.4297H251.742C251.803 41.3161 251.892 41.1847 252.008 41.0355C252.124 40.8864 252.285 40.7562 252.491 40.6449C252.697 40.5312 252.969 40.4744 253.308 40.4744C253.748 40.4744 254.141 40.5857 254.487 40.8082C254.833 41.0308 255.104 41.3516 255.3 41.7706C255.499 42.1896 255.598 42.6939 255.598 43.2834C255.598 43.8729 255.5 44.3783 255.304 44.7997C255.107 45.2187 254.837 45.5419 254.494 45.7692C254.151 45.9941 253.759 46.1065 253.319 46.1065C252.987 46.1065 252.716 46.0509 252.505 45.9396C252.297 45.8284 252.134 45.6982 252.015 45.549C251.897 45.3999 251.806 45.2673 251.742 45.1513H251.678V48.0455H250.616ZM251.657 43.2727C251.657 43.6562 251.712 43.9924 251.824 44.2812C251.935 44.5701 252.096 44.7962 252.306 44.9595C252.517 45.1205 252.775 45.201 253.081 45.201C253.398 45.201 253.663 45.117 253.876 44.9489C254.089 44.7784 254.25 44.5476 254.359 44.2564C254.47 43.9652 254.526 43.6373 254.526 43.2727C254.526 42.9129 254.471 42.5897 254.363 42.3033C254.256 42.0168 254.095 41.7907 253.88 41.625C253.667 41.4593 253.4 41.3764 253.081 41.3764C252.773 41.3764 252.512 41.4557 252.299 41.6143C252.089 41.773 251.929 41.9943 251.82 42.2784C251.711 42.5625 251.657 42.8939 251.657 43.2727Z" fill="#BDBCC0"/>
<path fill-rule="evenodd" clip-rule="evenodd" d="M253.617 12.6632V12.7401L251.241 21.3988C251.203 21.5901 251.088 21.667 250.896 21.667L241.739 22.3563L241.318 23.2376H250.092C250.36 23.2376 250.475 23.3526 250.475 23.6207C250.475 23.8888 250.36 24.042 250.092 24.042H240.667C240.399 24.042 240.284 23.8888 240.284 23.6207C240.284 23.5438 240.284 23.5057 240.322 23.4676L240.82 22.4332L240.705 22.4713H240.667C240.476 22.4713 240.322 22.3563 240.284 22.1651L237.295 10.1726C237.257 9.98135 237.104 9.90447 236.912 9.90447H234.383C234.115 9.90447 234 9.78947 234 9.52135C234 9.25322 234.115 9.1001 234.383 9.1001H236.912C237.487 9.1001 237.87 9.40635 238.061 9.98135L238.636 12.2801C238.636 12.242 238.674 12.242 238.713 12.242H253.234C253.503 12.242 253.618 12.3951 253.618 12.6632H253.617ZM241.854 24.8088C241.624 24.8088 241.433 24.8857 241.279 25.0388C241.126 25.192 241.049 25.3838 241.049 25.5751C241.049 25.8051 241.126 25.9963 241.279 26.1501C241.433 26.3038 241.624 26.3801 241.854 26.3801C242.046 26.3801 242.238 26.3032 242.391 26.1501C242.544 25.997 242.621 25.8051 242.621 25.5751C242.621 25.3838 242.544 25.192 242.391 25.0388C242.238 24.8857 242.046 24.8088 241.854 24.8088ZM249.479 25.0382C249.287 24.8851 249.096 24.8082 248.904 24.8082C248.712 24.8082 248.521 24.8851 248.367 25.0382C248.214 25.1913 248.137 25.3832 248.137 25.5745C248.137 25.8045 248.214 25.9957 248.367 26.1495C248.521 26.3032 248.712 26.3795 248.904 26.3795C249.095 26.3795 249.287 26.3026 249.479 26.1495C249.632 25.9963 249.709 25.8045 249.709 25.5745C249.709 25.3832 249.632 25.1913 249.479 25.0382Z" fill="#BDBCC0"/>
<path d="M329.007 41.0923H327.899C327.857 40.8556 327.778 40.6473 327.662 40.4673C327.546 40.2874 327.404 40.1347 327.235 40.0092C327.067 39.8838 326.879 39.7891 326.671 39.7251C326.465 39.6612 326.246 39.6293 326.014 39.6293C325.595 39.6293 325.22 39.7346 324.888 39.9453C324.559 40.156 324.299 40.465 324.107 40.8722C323.917 41.2794 323.823 41.7765 323.823 42.3636C323.823 42.9555 323.917 43.455 324.107 43.8622C324.299 44.2694 324.56 44.5772 324.892 44.7855C325.223 44.9938 325.596 45.098 326.01 45.098C326.24 45.098 326.458 45.0672 326.664 45.0057C326.872 44.9418 327.06 44.8482 327.228 44.7251C327.396 44.602 327.538 44.4517 327.654 44.2741C327.773 44.0942 327.855 43.8883 327.899 43.6562L329.007 43.6598C328.948 44.0173 328.833 44.3464 328.663 44.647C328.495 44.9453 328.278 45.2034 328.013 45.4212C327.75 45.6366 327.45 45.8035 327.111 45.9219C326.773 46.0402 326.403 46.0994 326.003 46.0994C325.373 46.0994 324.812 45.9503 324.32 45.652C323.828 45.3513 323.439 44.9216 323.155 44.3629C322.873 43.8042 322.733 43.1378 322.733 42.3636C322.733 41.5871 322.875 40.9207 323.159 40.3643C323.443 39.8056 323.831 39.3771 324.324 39.0788C324.816 38.7782 325.376 38.6278 326.003 38.6278C326.389 38.6278 326.749 38.6835 327.083 38.7947C327.419 38.9036 327.721 39.0646 327.988 39.2777C328.256 39.4884 328.477 39.7464 328.652 40.0518C328.828 40.3549 328.946 40.7017 329.007 41.0923ZM332.533 46.1101C332.021 46.1101 331.575 45.9929 331.194 45.7585C330.813 45.5241 330.517 45.1963 330.306 44.7749C330.096 44.3535 329.99 43.861 329.99 43.2976C329.99 42.7318 330.096 42.237 330.306 41.8132C330.517 41.3894 330.813 41.0604 331.194 40.826C331.575 40.5916 332.021 40.4744 332.533 40.4744C333.044 40.4744 333.49 40.5916 333.872 40.826C334.253 41.0604 334.549 41.3894 334.759 41.8132C334.97 42.237 335.075 42.7318 335.075 43.2976C335.075 43.861 334.97 44.3535 334.759 44.7749C334.549 45.1963 334.253 45.5241 333.872 45.7585C333.49 45.9929 333.044 46.1101 332.533 46.1101ZM332.536 45.2188C332.868 45.2188 333.142 45.1312 333.36 44.956C333.578 44.7808 333.739 44.5476 333.843 44.2564C333.95 43.9652 334.003 43.6444 334.003 43.294C334.003 42.946 333.95 42.6264 333.843 42.3352C333.739 42.0417 333.578 41.8061 333.36 41.6286C333.142 41.451 332.868 41.3622 332.536 41.3622C332.203 41.3622 331.926 41.451 331.705 41.6286C331.488 41.8061 331.325 42.0417 331.219 42.3352C331.115 42.6264 331.063 42.946 331.063 43.294C331.063 43.6444 331.115 43.9652 331.219 44.2564C331.325 44.5476 331.488 44.7808 331.705 44.956C331.926 45.1312 332.203 45.2188 332.536 45.2188ZM337.322 42.7614V46H336.261V40.5455H337.28V41.4332H337.347C337.473 41.1444 337.669 40.9124 337.937 40.7372C338.207 40.562 338.546 40.4744 338.956 40.4744C339.328 40.4744 339.653 40.5526 339.933 40.7088C340.212 40.8627 340.428 41.0923 340.582 41.3977C340.736 41.7031 340.813 42.0807 340.813 42.5305V46H339.751V42.6584C339.751 42.263 339.648 41.9541 339.442 41.7315C339.237 41.5066 338.954 41.3942 338.594 41.3942C338.348 41.3942 338.129 41.4474 337.937 41.554C337.747 41.6605 337.597 41.8168 337.486 42.0227C337.377 42.2263 337.322 42.4725 337.322 42.7614ZM344.783 40.5455V41.3977H341.804V40.5455H344.783ZM342.603 39.2386H343.665V44.3984C343.665 44.6044 343.696 44.7595 343.757 44.8636C343.819 44.9654 343.898 45.0353 343.995 45.0732C344.094 45.1087 344.202 45.1264 344.318 45.1264C344.403 45.1264 344.478 45.1205 344.542 45.1087C344.606 45.0968 344.656 45.0874 344.691 45.0803L344.883 45.9574C344.821 45.9811 344.734 46.0047 344.62 46.0284C344.506 46.0545 344.364 46.0687 344.194 46.071C343.915 46.0758 343.654 46.026 343.413 45.9219C343.171 45.8177 342.976 45.6567 342.827 45.4389C342.678 45.2211 342.603 44.9477 342.603 44.6186V39.2386ZM347.545 46.1207C347.2 46.1207 346.887 46.0568 346.608 45.929C346.328 45.7988 346.107 45.6106 345.944 45.3643C345.783 45.1181 345.702 44.8163 345.702 44.4588C345.702 44.151 345.761 43.8977 345.88 43.6989C345.998 43.5 346.158 43.3426 346.359 43.2266C346.56 43.1106 346.785 43.023 347.034 42.9638C347.282 42.9046 347.536 42.8596 347.794 42.8288C348.121 42.791 348.386 42.7602 348.589 42.7365C348.793 42.7105 348.941 42.669 349.033 42.6122C349.126 42.5554 349.172 42.4631 349.172 42.3352V42.3104C349.172 42.0002 349.084 41.7599 348.909 41.5895C348.736 41.419 348.478 41.3338 348.135 41.3338C347.777 41.3338 347.496 41.4131 347.29 41.5717C347.086 41.728 346.945 41.902 346.867 42.0938L345.869 41.8665C345.988 41.535 346.16 41.2675 346.388 41.0639C346.617 40.858 346.881 40.7088 347.18 40.6165C347.478 40.5218 347.791 40.4744 348.121 40.4744C348.338 40.4744 348.569 40.5005 348.813 40.5526C349.059 40.6023 349.289 40.6946 349.502 40.8295C349.717 40.9645 349.894 41.1574 350.031 41.4084C350.168 41.657 350.237 41.9801 350.237 42.3778V46H349.2V45.2543H349.157C349.089 45.3916 348.986 45.5265 348.849 45.6591C348.711 45.7917 348.535 45.9018 348.319 45.9893C348.104 46.0769 347.846 46.1207 347.545 46.1207ZM347.776 45.2685C348.07 45.2685 348.321 45.2105 348.529 45.0945C348.74 44.9785 348.899 44.8269 349.008 44.6399C349.12 44.4505 349.175 44.2481 349.175 44.0327V43.3295C349.137 43.3674 349.064 43.4029 348.955 43.4361C348.849 43.4669 348.727 43.4941 348.589 43.5178C348.452 43.5391 348.318 43.5592 348.188 43.5781C348.058 43.5947 347.949 43.6089 347.861 43.6207C347.655 43.6468 347.467 43.6906 347.297 43.7521C347.129 43.8137 346.994 43.9025 346.892 44.0185C346.792 44.1321 346.743 44.2836 346.743 44.473C346.743 44.7358 346.84 44.9347 347.034 45.0696C347.228 45.2022 347.475 45.2685 347.776 45.2685ZM353.949 46.1101C353.421 46.1101 352.966 45.9905 352.585 45.7514C352.206 45.5099 351.915 45.1773 351.712 44.7536C351.508 44.3298 351.406 43.8445 351.406 43.2976C351.406 42.7436 351.51 42.2547 351.719 41.831C351.927 41.4048 352.221 41.0722 352.599 40.8331C352.978 40.594 353.424 40.4744 353.938 40.4744C354.353 40.4744 354.722 40.5514 355.046 40.7053C355.37 40.8568 355.632 41.0698 355.831 41.3445C356.032 41.6191 356.152 41.9399 356.19 42.3068H355.156C355.099 42.0511 354.969 41.831 354.766 41.6463C354.564 41.4616 354.295 41.3693 353.956 41.3693C353.66 41.3693 353.401 41.4474 353.178 41.6037C352.958 41.7576 352.786 41.9777 352.663 42.2642C352.54 42.5483 352.479 42.8845 352.479 43.2727C352.479 43.6705 352.539 44.0137 352.66 44.3026C352.781 44.5914 352.951 44.8151 353.171 44.9737C353.394 45.1323 353.655 45.2116 353.956 45.2116C354.157 45.2116 354.339 45.175 354.503 45.1016C354.669 45.0258 354.807 44.9181 354.918 44.7784C355.032 44.6387 355.111 44.4706 355.156 44.2741H356.19C356.152 44.6269 356.037 44.9418 355.845 45.2188C355.653 45.4957 355.397 45.7135 355.075 45.8722C354.755 46.0308 354.38 46.1101 353.949 46.1101ZM359.871 40.5455V41.3977H356.892V40.5455H359.871ZM357.691 39.2386H358.753V44.3984C358.753 44.6044 358.783 44.7595 358.845 44.8636C358.907 44.9654 358.986 45.0353 359.083 45.0732C359.182 45.1087 359.29 45.1264 359.406 45.1264C359.491 45.1264 359.566 45.1205 359.63 45.1087C359.694 45.0968 359.743 45.0874 359.779 45.0803L359.971 45.9574C359.909 45.9811 359.822 46.0047 359.708 46.0284C359.594 46.0545 359.452 46.0687 359.282 46.071C359.002 46.0758 358.742 46.026 358.501 45.9219C358.259 45.8177 358.064 45.6567 357.915 45.4389C357.765 45.2211 357.691 44.9477 357.691 44.6186V39.2386Z" fill="#BDBCC0"/>
<path fill-rule="evenodd" clip-rule="evenodd" d="M348.24 20.675L350.501 22.8975C350.731 23.1275 350.846 23.3957 350.846 23.7407C350.846 24.1238 350.731 24.3919 350.501 24.5838L349.159 25.9632C348.355 26.7294 347.397 27.1125 346.324 27.1125C345.52 27.1125 344.754 26.8825 344.064 26.3844C342.071 25.0819 340.079 23.5494 338.087 21.7482C336.362 19.7944 334.869 17.8782 333.604 16.0013C333.068 15.1969 332.8 14.3919 332.8 13.5875C332.8 12.515 333.183 11.5569 333.949 10.7525L335.329 9.4113C335.52 9.1813 335.827 9.0663 336.172 9.0663C336.517 9.0663 336.785 9.1813 337.015 9.4113L339.237 11.6719C339.506 11.8632 339.621 12.17 339.621 12.515C339.621 12.8213 339.506 13.09 339.237 13.3582L338.279 14.3163C338.126 14.4694 338.049 14.6613 338.049 14.8913C338.049 15.0444 338.087 15.1975 338.164 15.3125C338.969 16.615 339.889 17.8413 340.961 18.9907C342.111 20.0632 343.298 20.9444 344.524 21.6725C344.677 21.7875 344.831 21.8638 345.022 21.8638C345.252 21.8638 345.444 21.7869 345.597 21.6338L346.556 20.6757C346.824 20.4075 347.092 20.2925 347.399 20.2925C347.744 20.2925 348.05 20.4075 348.242 20.6757L348.24 20.675ZM347.589 17.3419C347.627 17.4188 347.742 17.4569 347.857 17.4569C347.972 17.4569 348.048 17.4188 348.125 17.3419C348.929 16.5375 349.312 15.6175 349.312 14.545C349.312 13.4338 348.929 12.5144 348.163 11.7482C347.397 10.9819 346.477 10.5988 345.366 10.5988C344.294 10.5988 343.374 10.9819 342.569 11.7863C342.492 11.9394 342.454 12.0163 342.454 12.0544C342.454 12.3225 342.607 12.4375 342.876 12.4375C342.991 12.4375 343.067 12.3994 343.144 12.3225C343.757 11.7094 344.523 11.4032 345.404 11.4032C346.286 11.4032 347.014 11.7094 347.627 12.2844C348.202 12.8975 348.508 13.6257 348.508 14.5069C348.508 15.3882 348.202 16.1544 347.589 16.7675C347.512 16.8444 347.474 16.9207 347.474 17.0357C347.474 17.1507 347.512 17.2657 347.589 17.3419ZM341.458 10.675C342.492 9.64067 343.795 9.10442 345.328 9.10442C346.822 9.10442 348.125 9.64067 349.198 10.7138C350.271 11.7869 350.807 13.0894 350.807 14.5838C350.807 16.1163 350.271 17.4188 349.237 18.4538C349.16 18.5307 349.122 18.6069 349.122 18.7219C349.122 18.99 349.237 19.105 349.505 19.105C349.62 19.105 349.735 19.0669 349.811 18.99C350.999 17.8025 351.612 16.3082 351.612 14.5838C351.612 12.8594 350.999 11.3657 349.772 10.1394C348.546 8.91317 347.052 8.30005 345.328 8.30005C343.604 8.30005 342.11 8.91317 340.922 10.1007C340.845 10.1775 340.807 10.2919 340.807 10.4069C340.807 10.675 340.922 10.79 341.19 10.79C341.305 10.79 341.381 10.7519 341.458 10.675Z" fill="#BDBCC0"/>
<defs>
<clipPath id="clip0_1553_14375">
<rect y="1" width="390" height="83" fill="white"/>
</clipPath>
</defs>
</svg>
