<svg width="92" height="69" viewBox="0 0 92 69" fill="none" xmlns="http://www.w3.org/2000/svg">
<rect x="24" width="44" height="44" rx="22" fill="white" fill-opacity="0.35"/>
<path fill-rule="evenodd" clip-rule="evenodd" d="M52.6962 23.9875L53.7306 25.0219C53.9606 25.2519 54.0756 25.52 54.0756 25.8263V26.5157C54.0756 26.8607 53.9606 27.1288 53.7306 27.3588C53.5006 27.5888 53.2325 27.7038 52.8875 27.7038H38.7881C38.4431 27.7038 38.175 27.5888 37.945 27.3588C37.715 27.1288 37.6 26.8607 37.6 26.5157V25.8263C37.6 25.52 37.715 25.2513 37.945 25.0219L38.9794 23.9875C39.0944 23.8344 39.1706 23.6813 39.2094 23.5275L40.0137 17.8188C40.205 16.4013 40.8569 15.2132 41.9675 14.2557C43.0787 13.2975 44.3812 12.8 45.8375 12.8C47.255 12.8 48.5575 13.2982 49.6687 14.2557C50.8181 15.2519 51.4694 16.4394 51.6612 17.8569L52.4656 23.5275C52.5037 23.6807 52.5806 23.8338 52.6956 23.9875H52.6962ZM43.1175 28.5082H48.5581C48.4431 29.1594 48.1369 29.7344 47.6387 30.1938C47.1406 30.6532 46.5275 30.8832 45.8381 30.8832C45.1487 30.8832 44.5356 30.6532 44.0375 30.1938C43.5394 29.7344 43.2331 29.1594 43.1181 28.5082H43.1175Z" fill="white"/>
<path d="M10.0036 53.0909V64H8.49077L2.94567 55.9993H2.84446V64H1.19851V53.0909H2.72195L8.27237 61.1023H8.37358V53.0909H10.0036ZM15.7231 64.1651C14.9561 64.1651 14.2867 63.9893 13.7149 63.6378C13.1432 63.2862 12.6993 62.7944 12.3833 62.1623C12.0672 61.5302 11.9092 60.7915 11.9092 59.9464C11.9092 59.0977 12.0672 58.3555 12.3833 57.7198C12.6993 57.0842 13.1432 56.5906 13.7149 56.239C14.2867 55.8874 14.9561 55.7116 15.7231 55.7116C16.4901 55.7116 17.1595 55.8874 17.7313 56.239C18.303 56.5906 18.7469 57.0842 19.0629 57.7198C19.379 58.3555 19.537 59.0977 19.537 59.9464C19.537 60.7915 19.379 61.5302 19.0629 62.1623C18.7469 62.7944 18.303 63.2862 17.7313 63.6378C17.1595 63.9893 16.4901 64.1651 15.7231 64.1651ZM15.7284 62.8281C16.2256 62.8281 16.6375 62.6967 16.9642 62.4339C17.2909 62.1712 17.5324 61.8214 17.6887 61.3846C17.8485 60.9478 17.9284 60.4666 17.9284 59.9411C17.9284 59.419 17.8485 58.9396 17.6887 58.5028C17.5324 58.0625 17.2909 57.7092 16.9642 57.4428C16.6375 57.1765 16.2256 57.0433 15.7284 57.0433C15.2277 57.0433 14.8122 57.1765 14.482 57.4428C14.1553 57.7092 13.912 58.0625 13.7522 58.5028C13.596 58.9396 13.5178 59.419 13.5178 59.9411C13.5178 60.4666 13.596 60.9478 13.7522 61.3846C13.912 61.8214 14.1553 62.1712 14.482 62.4339C14.8122 62.6967 15.2277 62.8281 15.7284 62.8281ZM25.1341 55.8182V57.0966H20.665V55.8182H25.1341ZM21.8635 53.858H23.4561V61.5977C23.4561 61.9066 23.5023 62.1392 23.5946 62.2955C23.687 62.4482 23.8059 62.5529 23.9515 62.6097C24.1007 62.663 24.2623 62.6896 24.4363 62.6896C24.5641 62.6896 24.676 62.6808 24.7718 62.663C24.8677 62.6452 24.9423 62.631 24.9956 62.6204L25.2832 63.9361C25.1909 63.9716 25.0595 64.0071 24.889 64.0426C24.7186 64.0817 24.5055 64.103 24.2498 64.1065C23.8308 64.1136 23.4402 64.0391 23.0779 63.8828C22.7157 63.7266 22.4228 63.4851 22.199 63.1584C21.9753 62.8317 21.8635 62.4215 21.8635 61.9279V53.858ZM26.8959 64V55.8182H28.4885V64H26.8959ZM27.7002 54.5558C27.4232 54.5558 27.1853 54.4634 26.9864 54.2788C26.7911 54.0906 26.6934 53.8668 26.6934 53.6076C26.6934 53.3448 26.7911 53.1211 26.9864 52.9364C27.1853 52.7482 27.4232 52.6541 27.7002 52.6541C27.9772 52.6541 28.2133 52.7482 28.4086 52.9364C28.6075 53.1211 28.7069 53.3448 28.7069 53.6076C28.7069 53.8668 28.6075 54.0906 28.4086 54.2788C28.2133 54.4634 27.9772 54.5558 27.7002 54.5558ZM34.525 55.8182V57.0966H29.9015V55.8182H34.525ZM31.1692 64V54.87C31.1692 54.3587 31.2811 53.9343 31.5048 53.5969C31.7285 53.256 32.025 53.0021 32.3944 52.8352C32.7637 52.6648 33.165 52.5795 33.5982 52.5795C33.9178 52.5795 34.1912 52.6062 34.4185 52.6594C34.6458 52.7092 34.8145 52.7553 34.9245 52.7979L34.5517 54.087C34.4771 54.0657 34.3812 54.0408 34.264 54.0124C34.1468 53.9805 34.0048 53.9645 33.8379 53.9645C33.4508 53.9645 33.1738 54.0604 33.0069 54.2521C32.8436 54.4439 32.7619 54.7209 32.7619 55.0831V64H31.1692ZM36.1683 64V55.8182H37.761V64H36.1683ZM36.9727 54.5558C36.6957 54.5558 36.4577 54.4634 36.2589 54.2788C36.0636 54.0906 35.9659 53.8668 35.9659 53.6076C35.9659 53.3448 36.0636 53.1211 36.2589 52.9364C36.4577 52.7482 36.6957 52.6541 36.9727 52.6541C37.2496 52.6541 37.4858 52.7482 37.6811 52.9364C37.88 53.1211 37.9794 53.3448 37.9794 53.6076C37.9794 53.8668 37.88 54.0906 37.6811 54.2788C37.4858 54.4634 37.2496 54.5558 36.9727 54.5558ZM43.3501 64.1651C42.5581 64.1651 41.8763 63.9858 41.3046 63.6271C40.7364 63.2649 40.2996 62.766 39.9942 62.1303C39.6888 61.4947 39.5361 60.7667 39.5361 59.9464C39.5361 59.1154 39.6924 58.3821 40.0049 57.7464C40.3174 57.1072 40.7577 56.6083 41.3259 56.2496C41.8941 55.891 42.5635 55.7116 43.3341 55.7116C43.9555 55.7116 44.5095 55.8271 44.996 56.0579C45.4825 56.2852 45.8749 56.6048 46.1732 57.0167C46.4751 57.4286 46.6544 57.9098 46.7112 58.4602H45.1611C45.0759 58.0767 44.8806 57.7464 44.5752 57.4695C44.2733 57.1925 43.8685 57.054 43.3607 57.054C42.9168 57.054 42.528 57.1712 42.1942 57.4055C41.8639 57.6364 41.6064 57.9666 41.4218 58.3963C41.2371 58.8224 41.1448 59.3267 41.1448 59.9091C41.1448 60.5057 41.2354 61.0206 41.4165 61.4538C41.5976 61.8871 41.8532 62.2227 42.1835 62.4606C42.5173 62.6985 42.9097 62.8175 43.3607 62.8175C43.6626 62.8175 43.936 62.7624 44.181 62.6523C44.4296 62.5387 44.6373 62.3771 44.8042 62.1676C44.9747 61.9581 45.0937 61.706 45.1611 61.4112H46.7112C46.6544 61.9403 46.4822 62.4126 46.1945 62.8281C45.9069 63.2436 45.5216 63.5703 45.0386 63.8082C44.5592 64.0462 43.9964 64.1651 43.3501 64.1651ZM50.7955 64.1811C50.277 64.1811 49.8082 64.0852 49.3892 63.8935C48.9702 63.6982 48.6381 63.4158 48.3931 63.0465C48.1516 62.6772 48.0309 62.2244 48.0309 61.6882C48.0309 61.2266 48.1197 60.8466 48.2972 60.5483C48.4748 60.25 48.7145 60.0138 49.0163 59.8398C49.3182 59.6658 49.6555 59.5344 50.0284 59.4457C50.4013 59.3569 50.7813 59.2894 51.1683 59.2433C51.6584 59.1864 52.0561 59.1403 52.3615 59.1048C52.6669 59.0657 52.8888 59.0036 53.0273 58.9183C53.1658 58.8331 53.2351 58.6946 53.2351 58.5028V58.4656C53.2351 58.0004 53.1037 57.6399 52.8409 57.3842C52.5817 57.1286 52.1946 57.0007 51.6797 57.0007C51.1435 57.0007 50.7209 57.1197 50.4119 57.3576C50.1065 57.592 49.8952 57.853 49.7781 58.1406L48.2812 57.7997C48.4588 57.3026 48.718 56.9013 49.0589 56.5959C49.4034 56.2869 49.7994 56.0632 50.2468 55.9247C50.6942 55.7827 51.1648 55.7116 51.6584 55.7116C51.9851 55.7116 52.3313 55.7507 52.6971 55.8288C53.0664 55.9034 53.4109 56.0419 53.7305 56.2443C54.0536 56.4467 54.3182 56.7362 54.5241 57.1126C54.7301 57.4854 54.8331 57.9702 54.8331 58.5668V64H53.2777V62.8814H53.2138C53.1108 63.0874 52.9563 63.2898 52.7504 63.4886C52.5444 63.6875 52.2798 63.8526 51.9567 63.984C51.6335 64.1154 51.2464 64.1811 50.7955 64.1811ZM51.1417 62.9027C51.582 62.9027 51.9585 62.8157 52.271 62.6417C52.587 62.4677 52.8267 62.2404 52.9901 61.9599C53.157 61.6758 53.2404 61.3722 53.2404 61.049V59.9943C53.1836 60.0511 53.0735 60.1044 52.9102 60.1541C52.7504 60.2003 52.5675 60.2411 52.3615 60.2766C52.1555 60.3086 51.9549 60.3388 51.7596 60.3672C51.5643 60.392 51.4009 60.4134 51.2695 60.4311C50.9606 60.4702 50.6783 60.5359 50.4226 60.6282C50.1705 60.7205 49.968 60.8537 49.8153 61.0277C49.6662 61.1982 49.5916 61.4254 49.5916 61.7095C49.5916 62.1037 49.7372 62.402 50.0284 62.6044C50.3196 62.8033 50.6907 62.9027 51.1417 62.9027ZM60.7737 55.8182V57.0966H56.3046V55.8182H60.7737ZM57.5031 53.858H59.0958V61.5977C59.0958 61.9066 59.142 62.1392 59.2343 62.2955C59.3266 62.4482 59.4456 62.5529 59.5912 62.6097C59.7403 62.663 59.9019 62.6896 60.0759 62.6896C60.2037 62.6896 60.3156 62.6808 60.4115 62.663C60.5074 62.6452 60.5819 62.631 60.6352 62.6204L60.9229 63.9361C60.8305 63.9716 60.6991 64.0071 60.5287 64.0426C60.3582 64.0817 60.1452 64.103 59.8895 64.1065C59.4704 64.1136 59.0798 64.0391 58.7176 63.8828C58.3554 63.7266 58.0624 63.4851 57.8387 63.1584C57.615 62.8317 57.5031 62.4215 57.5031 61.9279V53.858ZM62.5355 64V55.8182H64.1282V64H62.5355ZM63.3398 54.5558C63.0629 54.5558 62.8249 54.4634 62.6261 54.2788C62.4308 54.0906 62.3331 53.8668 62.3331 53.6076C62.3331 53.3448 62.4308 53.1211 62.6261 52.9364C62.8249 52.7482 63.0629 52.6541 63.3398 52.6541C63.6168 52.6541 63.853 52.7482 64.0483 52.9364C64.2472 53.1211 64.3466 53.3448 64.3466 53.6076C64.3466 53.8668 64.2472 54.0906 64.0483 54.2788C63.853 54.4634 63.6168 54.5558 63.3398 54.5558ZM69.7172 64.1651C68.9502 64.1651 68.2808 63.9893 67.7091 63.6378C67.1373 63.2862 66.6934 62.7944 66.3774 62.1623C66.0613 61.5302 65.9033 60.7915 65.9033 59.9464C65.9033 59.0977 66.0613 58.3555 66.3774 57.7198C66.6934 57.0842 67.1373 56.5906 67.7091 56.239C68.2808 55.8874 68.9502 55.7116 69.7172 55.7116C70.4843 55.7116 71.1537 55.8874 71.7254 56.239C72.2971 56.5906 72.741 57.0842 73.0571 57.7198C73.3731 58.3555 73.5312 59.0977 73.5312 59.9464C73.5312 60.7915 73.3731 61.5302 73.0571 62.1623C72.741 62.7944 72.2971 63.2862 71.7254 63.6378C71.1537 63.9893 70.4843 64.1651 69.7172 64.1651ZM69.7226 62.8281C70.2197 62.8281 70.6317 62.6967 70.9584 62.4339C71.2851 62.1712 71.5265 61.8214 71.6828 61.3846C71.8426 60.9478 71.9225 60.4666 71.9225 59.9411C71.9225 59.419 71.8426 58.9396 71.6828 58.5028C71.5265 58.0625 71.2851 57.7092 70.9584 57.4428C70.6317 57.1765 70.2197 57.0433 69.7226 57.0433C69.2219 57.0433 68.8064 57.1765 68.4761 57.4428C68.1494 57.7092 67.9062 58.0625 67.7464 58.5028C67.5901 58.9396 67.512 59.419 67.512 59.9411C67.512 60.4666 67.5901 60.9478 67.7464 61.3846C67.9062 61.8214 68.1494 62.1712 68.4761 62.4339C68.8064 62.6967 69.2219 62.8281 69.7226 62.8281ZM76.9016 59.142V64H75.3089V55.8182H76.8377V57.1499H76.9389C77.1271 56.7166 77.4219 56.3686 77.8232 56.1058C78.228 55.843 78.7376 55.7116 79.3519 55.7116C79.9094 55.7116 80.3977 55.8288 80.8168 56.0632C81.2358 56.294 81.5607 56.6385 81.7915 57.0966C82.0224 57.5547 82.1378 58.1211 82.1378 58.7958V64H80.5451V58.9876C80.5451 58.3945 80.3906 57.9311 80.0817 57.5973C79.7727 57.2599 79.3484 57.0913 78.8086 57.0913C78.4393 57.0913 78.1108 57.1712 77.8232 57.331C77.5391 57.4908 77.3136 57.7251 77.1467 58.0341C76.9833 58.3395 76.9016 58.7088 76.9016 59.142ZM90.4048 57.8157L88.9613 58.0714C88.9009 57.8867 88.805 57.7109 88.6737 57.544C88.5458 57.3771 88.3718 57.2404 88.1516 57.1339C87.9315 57.0273 87.6563 56.9741 87.326 56.9741C86.875 56.9741 86.4986 57.0753 86.1967 57.2777C85.8949 57.4766 85.744 57.734 85.744 58.0501C85.744 58.3235 85.8452 58.5437 86.0476 58.7106C86.25 58.8775 86.5767 59.0142 87.0277 59.1207L88.3274 59.419C89.0803 59.593 89.6413 59.8612 90.0107 60.2234C90.38 60.5856 90.5646 61.0561 90.5646 61.6349C90.5646 62.125 90.4226 62.5618 90.1385 62.9453C89.858 63.3253 89.4656 63.6236 88.9613 63.8402C88.4606 64.0568 87.88 64.1651 87.2195 64.1651C86.3033 64.1651 85.5558 63.9698 84.9769 63.5792C84.3981 63.185 84.043 62.6257 83.9116 61.9013L85.451 61.6669C85.5469 62.0682 85.744 62.3718 86.0423 62.5778C86.3406 62.7802 86.7294 62.8814 87.2088 62.8814C87.7308 62.8814 88.1481 62.7731 88.4606 62.5565C88.7731 62.3363 88.9293 62.0682 88.9293 61.7521C88.9293 61.4964 88.8335 61.2816 88.6417 61.1076C88.4535 60.9336 88.1641 60.8022 87.7734 60.7134L86.3885 60.4098C85.625 60.2358 85.0604 59.9588 84.6946 59.5788C84.3324 59.1989 84.1513 58.7177 84.1513 58.1353C84.1513 57.6523 84.2862 57.2298 84.5561 56.8675C84.826 56.5053 85.1989 56.223 85.6747 56.0206C86.1506 55.8146 86.6957 55.7116 87.31 55.7116C88.1942 55.7116 88.8903 55.9034 89.3981 56.2869C89.9059 56.6669 90.2415 57.1765 90.4048 57.8157Z" fill="white"/>
</svg>
