<svg width="60" height="69" viewBox="0 0 60 69" fill="none" xmlns="http://www.w3.org/2000/svg">
<rect x="8" width="44" height="44" rx="22" fill="white" fill-opacity="0.35"/>
<path fill-rule="evenodd" clip-rule="evenodd" d="M39.0406 20.2756L37.4312 19.8156C37.3162 19.7775 37.2013 19.6625 37.1631 19.5475C37.0481 19.1262 36.8569 18.6663 36.5881 18.13C36.55 18.0919 36.55 18.0531 36.55 18.015C36.55 17.9381 36.5881 17.8619 36.6269 17.8238L37.4312 16.3681C37.4694 16.215 37.5081 16.1 37.5081 15.985C37.5081 15.755 37.4312 15.5637 37.2781 15.41L36.2056 14.3375C36.0525 14.1844 35.8606 14.1075 35.6306 14.1075C35.5156 14.1075 35.4006 14.1456 35.2475 14.1844L33.7919 14.9888C33.7537 15.0269 33.6769 15.0656 33.6006 15.0656C33.5625 15.0656 33.5238 15.0275 33.4094 14.9888C32.9494 14.7588 32.5281 14.5675 32.1069 14.4525C31.9537 14.4144 31.8387 14.3375 31.8006 14.1844L31.3406 12.575C31.2256 12.1919 30.9575 12 30.5744 12H29.0419C28.6587 12 28.3906 12.1912 28.2756 12.575L27.8156 14.1844C27.7775 14.3375 27.6625 14.4144 27.5475 14.4525C27.1262 14.5675 26.6663 14.7587 26.13 15.0275C26.0919 15.0656 26.0531 15.0656 26.015 15.0656C25.9381 15.0656 25.8619 15.0275 25.8238 14.9888L24.3681 14.1844C24.215 14.1463 24.1 14.1075 23.985 14.1075C23.755 14.1075 23.5637 14.1844 23.41 14.3375L22.3375 15.41C22.1844 15.5631 22.1075 15.755 22.1075 15.985C22.1075 16.1 22.1456 16.215 22.1844 16.3681L22.9888 17.8238C23.0269 17.8619 23.0656 17.9388 23.0656 18.015C23.0656 18.0531 23.0275 18.0919 22.9888 18.2063C22.7588 18.6663 22.5675 19.0875 22.4525 19.5088C22.4144 19.6619 22.3375 19.7769 22.1844 19.815L20.575 20.275C20.1919 20.39 20 20.6581 20 21.0413V22.5738C20 22.9569 20.1912 23.225 20.575 23.34L22.1844 23.8C22.3375 23.8381 22.4144 23.9531 22.4525 24.0681C22.6056 24.5281 22.7975 24.9875 23.0275 25.4856C23.0656 25.5238 23.0656 25.5625 23.0656 25.6006C23.0656 25.6775 23.0275 25.7537 22.9888 25.7919L22.1844 27.2475C22.1463 27.4006 22.1075 27.5156 22.1075 27.6306C22.1075 27.8606 22.1844 28.0519 22.3375 28.2056L23.41 29.2781C23.5631 29.4312 23.755 29.5081 23.985 29.5081C24.1 29.5081 24.215 29.47 24.3681 29.4312L25.8238 28.6269C25.8619 28.5888 25.9388 28.55 26.015 28.55C26.0531 28.55 26.0919 28.5881 26.2063 28.6269C26.6663 28.8569 27.0875 29.0481 27.5088 29.1631C27.6619 29.2013 27.7769 29.2781 27.815 29.4312L28.275 31.0406C28.39 31.4237 28.6581 31.6156 29.0413 31.6156H30.5738C30.9569 31.6156 31.225 31.4244 31.34 31.0406L31.8 29.4312C31.8381 29.2781 31.9531 29.2013 32.0681 29.1631C32.4894 29.0481 32.9494 28.8569 33.4856 28.5881C33.5238 28.55 33.5625 28.55 33.6006 28.55C33.6775 28.55 33.7537 28.5881 33.7919 28.6269L35.2475 29.4312C35.4006 29.4694 35.5156 29.5081 35.6306 29.5081C35.8606 29.5081 36.0519 29.4312 36.2056 29.2781L37.2781 28.2056C37.4312 28.0525 37.5081 27.8606 37.5081 27.6306C37.5081 27.5156 37.47 27.4006 37.4312 27.2475L36.6269 25.7919C36.5888 25.7537 36.55 25.6769 36.55 25.6006C36.55 25.5625 36.5881 25.5238 36.6269 25.4094C36.8181 24.9881 37.01 24.5662 37.1631 24.1069C37.2013 23.9537 37.2781 23.8387 37.4312 23.8006L39.0406 23.3406C39.4237 23.2256 39.6156 22.9575 39.6156 22.5744V21.0419C39.6156 20.6587 39.4244 20.3906 39.0406 20.2756ZM32.2969 24.2987C31.6075 24.9881 30.7644 25.3331 29.8062 25.3331C28.8481 25.3331 28.0056 24.9881 27.3156 24.2987C26.6262 23.6094 26.2812 22.7662 26.2812 21.8081C26.2812 20.85 26.6262 20.0075 27.3156 19.3175C28.005 18.6281 28.8481 18.2831 29.8062 18.2831C30.7644 18.2831 31.6069 18.6281 32.2969 19.3175C32.9862 20.0069 33.3313 20.85 33.3313 21.8081C33.3313 22.7662 32.9862 23.6088 32.2969 24.2987Z" fill="white"/>
<path d="M7.14844 55.9567C7.09162 55.4524 6.85724 55.0618 6.44531 54.7848C6.03338 54.5043 5.51492 54.364 4.88992 54.364C4.44247 54.364 4.0554 54.435 3.72869 54.5771C3.40199 54.7156 3.14808 54.9073 2.96697 55.1523C2.78942 55.3938 2.70064 55.669 2.70064 55.978C2.70064 56.2372 2.76101 56.4609 2.88175 56.6491C3.00604 56.8374 3.16761 56.9954 3.36648 57.1232C3.56889 57.2475 3.78551 57.3523 4.01634 57.4375C4.24716 57.5192 4.46911 57.5866 4.68217 57.6399L5.74751 57.9169C6.09553 58.0021 6.45241 58.1175 6.81818 58.2631C7.18395 58.4087 7.52308 58.6005 7.83558 58.8384C8.14808 59.0763 8.40021 59.3711 8.59197 59.7227C8.78729 60.0742 8.88494 60.495 8.88494 60.9851C8.88494 61.603 8.72514 62.1516 8.40554 62.631C8.08949 63.1104 7.62962 63.4886 7.02592 63.7656C6.42578 64.0426 5.69957 64.1811 4.8473 64.1811C4.03054 64.1811 3.32386 64.0515 2.72727 63.7923C2.13068 63.533 1.66371 63.1655 1.32635 62.6896C0.988991 62.2102 0.802557 61.642 0.767046 60.9851H2.41832C2.45028 61.3793 2.57813 61.7077 2.80185 61.9705C3.02912 62.2298 3.31854 62.4233 3.6701 62.5511C4.02521 62.6754 4.41406 62.7376 4.83665 62.7376C5.30185 62.7376 5.71555 62.6648 6.07777 62.5192C6.44354 62.37 6.73118 62.1641 6.9407 61.9013C7.15021 61.6349 7.25497 61.3242 7.25497 60.9691C7.25497 60.646 7.16264 60.3814 6.97798 60.1754C6.79688 59.9695 6.55007 59.799 6.23757 59.6641C5.92862 59.5291 5.57884 59.4102 5.18821 59.3072L3.89915 58.9556C3.02557 58.7177 2.3331 58.3679 1.82173 57.9062C1.31392 57.4446 1.06001 56.8338 1.06001 56.0739C1.06001 55.4453 1.23047 54.8967 1.57138 54.4279C1.91229 53.9592 2.37393 53.5952 2.95632 53.3359C3.53871 53.0732 4.19567 52.9418 4.9272 52.9418C5.66584 52.9418 6.31747 53.0714 6.8821 53.3306C7.45028 53.5898 7.89773 53.9467 8.22443 54.4013C8.55114 54.8523 8.72159 55.3707 8.7358 55.9567H7.14844ZM14.2503 64.1651C13.4442 64.1651 12.7499 63.9929 12.1675 63.6484C11.5887 63.3004 11.1412 62.8121 10.8252 62.1836C10.5127 61.5515 10.3564 60.8111 10.3564 59.9624C10.3564 59.1243 10.5127 58.3857 10.8252 57.7464C11.1412 57.1072 11.5816 56.6083 12.1462 56.2496C12.7144 55.891 13.3785 55.7116 14.1384 55.7116C14.6001 55.7116 15.0475 55.788 15.4807 55.9407C15.914 56.0934 16.3028 56.3331 16.6473 56.6598C16.9917 56.9865 17.2634 57.4109 17.4623 57.9329C17.6611 58.4513 17.7606 59.0817 17.7606 59.8239V60.3885H11.2567V59.1953H16.1998C16.1998 58.7763 16.1146 58.4052 15.9442 58.082C15.7737 57.7553 15.534 57.4979 15.2251 57.3097C14.9197 57.1214 14.561 57.0273 14.1491 57.0273C13.7016 57.0273 13.311 57.1374 12.9772 57.3576C12.6469 57.5742 12.3912 57.8583 12.2101 58.2099C12.0326 58.5579 11.9438 58.9361 11.9438 59.3445V60.2766C11.9438 60.8235 12.0397 61.2887 12.2314 61.6722C12.4268 62.0558 12.6984 62.3487 13.0464 62.5511C13.3944 62.75 13.801 62.8494 14.2662 62.8494C14.5681 62.8494 14.8433 62.8068 15.0919 62.7216C15.3405 62.6328 15.5553 62.5014 15.7364 62.3274C15.9175 62.1534 16.056 61.9386 16.1519 61.6829L17.6594 61.9545C17.5386 62.3984 17.322 62.7873 17.0095 63.1211C16.7006 63.4513 16.3117 63.7088 15.843 63.8935C15.3778 64.0746 14.8469 64.1651 14.2503 64.1651ZM23.3469 55.8182V57.0966H18.8778V55.8182H23.3469ZM20.0763 53.858H21.669V61.5977C21.669 61.9066 21.7152 62.1392 21.8075 62.2955C21.8999 62.4482 22.0188 62.5529 22.1644 62.6097C22.3136 62.663 22.4751 62.6896 22.6491 62.6896C22.777 62.6896 22.8888 62.6808 22.9847 62.663C23.0806 62.6452 23.1552 62.631 23.2085 62.6204L23.4961 63.9361C23.4038 63.9716 23.2724 64.0071 23.1019 64.0426C22.9315 64.0817 22.7184 64.103 22.4627 64.1065C22.0437 64.1136 21.6531 64.0391 21.2908 63.8828C20.9286 63.7266 20.6357 63.4851 20.4119 63.1584C20.1882 62.8317 20.0763 62.4215 20.0763 61.9279V53.858ZM28.928 55.8182V57.0966H24.4589V55.8182H28.928ZM25.6574 53.858H27.2501V61.5977C27.2501 61.9066 27.2963 62.1392 27.3886 62.2955C27.4809 62.4482 27.5999 62.5529 27.7455 62.6097C27.8946 62.663 28.0562 62.6896 28.2302 62.6896C28.358 62.6896 28.4699 62.6808 28.5658 62.663C28.6617 62.6452 28.7362 62.631 28.7895 62.6204L29.0771 63.9361C28.9848 63.9716 28.8534 64.0071 28.683 64.0426C28.5125 64.0817 28.2994 64.103 28.0438 64.1065C27.6247 64.1136 27.2341 64.0391 26.8719 63.8828C26.5097 63.7266 26.2167 63.4851 25.993 63.1584C25.7693 62.8317 25.6574 62.4215 25.6574 61.9279V53.858ZM30.6898 64V55.8182H32.2825V64H30.6898ZM31.4941 54.5558C31.2172 54.5558 30.9792 54.4634 30.7804 54.2788C30.585 54.0906 30.4874 53.8668 30.4874 53.6076C30.4874 53.3448 30.585 53.1211 30.7804 52.9364C30.9792 52.7482 31.2172 52.6541 31.4941 52.6541C31.7711 52.6541 32.0073 52.7482 32.2026 52.9364C32.4015 53.1211 32.5009 53.3448 32.5009 53.6076C32.5009 53.8668 32.4015 54.0906 32.2026 54.2788C32.0073 54.4634 31.7711 54.5558 31.4941 54.5558ZM36.0178 59.142V64H34.4252V55.8182H35.9539V57.1499H36.0551C36.2433 56.7166 36.5381 56.3686 36.9394 56.1058C37.3442 55.843 37.8538 55.7116 38.4681 55.7116C39.0257 55.7116 39.5139 55.8288 39.933 56.0632C40.352 56.294 40.6769 56.6385 40.9078 57.0966C41.1386 57.5547 41.254 58.1211 41.254 58.7958V64H39.6613V58.9876C39.6613 58.3945 39.5068 57.9311 39.1979 57.5973C38.8889 57.2599 38.4646 57.0913 37.9248 57.0913C37.5555 57.0913 37.227 57.1712 36.9394 57.331C36.6553 57.4908 36.4298 57.7251 36.2629 58.0341C36.0995 58.3395 36.0178 58.7088 36.0178 59.142ZM46.8204 67.2386C46.1705 67.2386 45.6112 67.1534 45.1425 66.983C44.6773 66.8125 44.2973 66.587 44.0026 66.3065C43.7078 66.0259 43.4877 65.7188 43.3421 65.3849L44.711 64.8203C44.8069 64.9766 44.9347 65.1417 45.0945 65.3157C45.2579 65.4933 45.4781 65.6442 45.7551 65.7685C46.0356 65.8928 46.396 65.9549 46.8364 65.9549C47.4401 65.9549 47.939 65.8075 48.3332 65.5128C48.7274 65.2216 48.9244 64.7564 48.9244 64.1172V62.5085H48.8232C48.7274 62.6825 48.5889 62.8761 48.4078 63.0891C48.2302 63.3022 47.9852 63.4869 47.6727 63.6431C47.3602 63.7994 46.9536 63.8775 46.4529 63.8775C45.8066 63.8775 45.2242 63.7266 44.7057 63.4247C44.1908 63.1193 43.7824 62.6701 43.4806 62.0771C43.1823 61.4805 43.0331 60.7472 43.0331 59.8771C43.0331 59.0071 43.1805 58.2614 43.4752 57.6399C43.7735 57.0185 44.1819 56.5426 44.7004 56.2124C45.2188 55.8786 45.8066 55.7116 46.4635 55.7116C46.9713 55.7116 47.3815 55.7969 47.694 55.9673C48.0065 56.1342 48.2497 56.3295 48.4237 56.5533C48.6013 56.777 48.738 56.9741 48.8339 57.1445H48.9511V55.8182H50.5118V64.1811C50.5118 64.8842 50.3485 65.4613 50.0218 65.9123C49.695 66.3633 49.2529 66.6971 48.6954 66.9137C48.1414 67.1303 47.5164 67.2386 46.8204 67.2386ZM46.8044 62.5565C47.2625 62.5565 47.6496 62.4499 47.9656 62.2369C48.2852 62.0202 48.5267 61.7113 48.6901 61.31C48.857 60.9052 48.9404 60.4205 48.9404 59.8558C48.9404 59.3054 48.8588 58.8207 48.6954 58.4016C48.532 57.9826 48.2923 57.6559 47.9763 57.4215C47.6602 57.1836 47.2696 57.0646 46.8044 57.0646C46.325 57.0646 45.9255 57.1889 45.6059 57.4375C45.2863 57.6825 45.0448 58.0163 44.8815 58.4389C44.7217 58.8615 44.6418 59.3338 44.6418 59.8558C44.6418 60.392 44.7235 60.8626 44.8868 61.2674C45.0502 61.6722 45.2916 61.9883 45.6112 62.2156C45.9344 62.4428 46.3321 62.5565 46.8044 62.5565ZM58.7789 57.8157L57.3353 58.0714C57.2749 57.8867 57.1791 57.7109 57.0477 57.544C56.9198 57.3771 56.7458 57.2404 56.5257 57.1339C56.3055 57.0273 56.0303 56.9741 55.7 56.9741C55.249 56.9741 54.8726 57.0753 54.5708 57.2777C54.2689 57.4766 54.118 57.734 54.118 58.0501C54.118 58.3235 54.2192 58.5437 54.4216 58.7106C54.624 58.8775 54.9507 59.0142 55.4017 59.1207L56.7014 59.419C57.4543 59.593 58.0154 59.8612 58.3847 60.2234C58.754 60.5856 58.9387 61.0561 58.9387 61.6349C58.9387 62.125 58.7966 62.5618 58.5125 62.9453C58.232 63.3253 57.8396 63.6236 57.3353 63.8402C56.8346 64.0568 56.254 64.1651 55.5935 64.1651C54.6773 64.1651 53.9298 63.9698 53.3509 63.5792C52.7721 63.185 52.417 62.6257 52.2856 61.9013L53.825 61.6669C53.9209 62.0682 54.118 62.3718 54.4163 62.5778C54.7146 62.7802 55.1034 62.8814 55.5828 62.8814C56.1048 62.8814 56.5221 62.7731 56.8346 62.5565C57.1471 62.3363 57.3034 62.0682 57.3034 61.7521C57.3034 61.4964 57.2075 61.2816 57.0157 61.1076C56.8275 60.9336 56.5381 60.8022 56.1475 60.7134L54.7625 60.4098C53.999 60.2358 53.4344 59.9588 53.0686 59.5788C52.7064 59.1989 52.5253 58.7177 52.5253 58.1353C52.5253 57.6523 52.6602 57.2298 52.9301 56.8675C53.2 56.5053 53.5729 56.223 54.0487 56.0206C54.5246 55.8146 55.0697 55.7116 55.684 55.7116C56.5683 55.7116 57.2643 55.9034 57.7721 56.2869C58.2799 56.6669 58.6155 57.1765 58.7789 57.8157Z" fill="white"/>
</svg>
