<svg width="82" height="69" viewBox="0 0 82 69" fill="none" xmlns="http://www.w3.org/2000/svg">
<rect x="19" width="44" height="44" rx="22" fill="white" fill-opacity="0.35"/>
<path fill-rule="evenodd" clip-rule="evenodd" d="M45.8275 22.6125V22.5744L50.5019 23.2638C50.1569 25.4475 49.2375 27.2481 47.7431 28.7425L44.41 25.4094C45.2144 24.6813 45.6744 23.7238 45.8275 22.6125ZM42.4175 12.1525H42.3794L41.6131 16.7888C42.8394 16.98 43.8737 17.555 44.6781 18.5131C45.4825 19.4713 45.9044 20.5437 45.9044 21.8081H50.6169C50.6169 19.3944 49.8506 17.2869 48.28 15.4481C46.7094 13.6475 44.755 12.5362 42.4181 12.1531L42.4175 12.1525ZM40.8088 26.9038C39.3913 26.9038 38.2031 26.4056 37.2075 25.4094C36.2119 24.4131 35.7131 23.2256 35.7131 21.8081C35.7131 20.3906 36.2113 19.2025 37.2075 18.2069C38.1656 17.2106 39.3913 16.7125 40.8088 16.7125V12C38.0888 12 35.7894 12.9581 33.8737 14.8737C31.9581 16.7894 31 19.0881 31 21.8088C31 24.5288 31.9581 26.8281 33.8737 28.7437C35.7894 30.6594 38.0881 31.6175 40.8088 31.6175C42.8394 31.6175 44.755 31.0044 46.4794 29.8169L43.7594 25.9856C42.8781 26.5988 41.8819 26.905 40.8094 26.905L40.8088 26.9038Z" fill="white"/>
<path d="M4.73011 64H1.19851V53.0909H4.84197C5.91087 53.0909 6.82884 53.3093 7.59588 53.7461C8.36293 54.1793 8.95064 54.8026 9.35902 55.6158C9.77095 56.4254 9.97692 57.3967 9.97692 58.5295C9.97692 59.6658 9.76918 60.6424 9.35369 61.4592C8.94176 62.2759 8.34517 62.9045 7.56392 63.3448C6.78267 63.7816 5.83807 64 4.73011 64ZM2.84446 62.5618H4.63956C5.47053 62.5618 6.16122 62.4055 6.71165 62.093C7.26207 61.777 7.67401 61.3207 7.94744 60.7241C8.22088 60.1239 8.3576 59.3924 8.3576 58.5295C8.3576 57.6737 8.22088 56.9474 7.94744 56.3509C7.67756 55.7543 7.2745 55.3015 6.73828 54.9925C6.20206 54.6836 5.53622 54.5291 4.74077 54.5291H2.84446V62.5618ZM14.2769 64.1811C13.7584 64.1811 13.2897 64.0852 12.8706 63.8935C12.4516 63.6982 12.1196 63.4158 11.8746 63.0465C11.6331 62.6772 11.5123 62.2244 11.5123 61.6882C11.5123 61.2266 11.6011 60.8466 11.7787 60.5483C11.9562 60.25 12.1959 60.0138 12.4978 59.8398C12.7996 59.6658 13.137 59.5344 13.5099 59.4457C13.8827 59.3569 14.2627 59.2894 14.6498 59.2433C15.1398 59.1864 15.5376 59.1403 15.843 59.1048C16.1483 59.0657 16.3703 59.0036 16.5088 58.9183C16.6473 58.8331 16.7165 58.6946 16.7165 58.5028V58.4656C16.7165 58.0004 16.5851 57.6399 16.3224 57.3842C16.0631 57.1286 15.676 57.0007 15.1611 57.0007C14.6249 57.0007 14.2023 57.1197 13.8934 57.3576C13.588 57.592 13.3767 57.853 13.2595 58.1406L11.7627 57.7997C11.9403 57.3026 12.1995 56.9013 12.5404 56.5959C12.8849 56.2869 13.2808 56.0632 13.7282 55.9247C14.1757 55.7827 14.6462 55.7116 15.1398 55.7116C15.4665 55.7116 15.8128 55.7507 16.1785 55.8288C16.5479 55.9034 16.8923 56.0419 17.2119 56.2443C17.5351 56.4467 17.7996 56.7362 18.0056 57.1126C18.2116 57.4854 18.3145 57.9702 18.3145 58.5668V64H16.7591V62.8814H16.6952C16.5922 63.0874 16.4378 63.2898 16.2318 63.4886C16.0258 63.6875 15.7613 63.8526 15.4381 63.984C15.115 64.1154 14.7279 64.1811 14.2769 64.1811ZM14.6231 62.9027C15.0635 62.9027 15.4399 62.8157 15.7524 62.6417C16.0684 62.4677 16.3082 62.2404 16.4715 61.9599C16.6384 61.6758 16.7219 61.3722 16.7219 61.049V59.9943C16.665 60.0511 16.555 60.1044 16.3916 60.1541C16.2318 60.2003 16.0489 60.2411 15.843 60.2766C15.637 60.3086 15.4363 60.3388 15.241 60.3672C15.0457 60.392 14.8824 60.4134 14.751 60.4311C14.442 60.4702 14.1597 60.5359 13.904 60.6282C13.6519 60.7205 13.4495 60.8537 13.2968 61.0277C13.1476 61.1982 13.0731 61.4254 13.0731 61.7095C13.0731 62.1037 13.2187 62.402 13.5099 62.6044C13.801 62.8033 14.1721 62.9027 14.6231 62.9027ZM24.2551 55.8182V57.0966H19.786V55.8182H24.2551ZM20.9846 53.858H22.5772V61.5977C22.5772 61.9066 22.6234 62.1392 22.7157 62.2955C22.8081 62.4482 22.927 62.5529 23.0726 62.6097C23.2218 62.663 23.3833 62.6896 23.5574 62.6896C23.6852 62.6896 23.7971 62.6808 23.8929 62.663C23.9888 62.6452 24.0634 62.631 24.1167 62.6204L24.4043 63.9361C24.312 63.9716 24.1806 64.0071 24.0101 64.0426C23.8397 64.0817 23.6266 64.103 23.3709 64.1065C22.9519 64.1136 22.5613 64.0391 22.199 63.8828C21.8368 63.7266 21.5439 63.4851 21.3201 63.1584C21.0964 62.8317 20.9846 62.4215 20.9846 61.9279V53.858ZM28.398 64.1811C27.8795 64.1811 27.4108 64.0852 26.9917 63.8935C26.5727 63.6982 26.2407 63.4158 25.9956 63.0465C25.7542 62.6772 25.6334 62.2244 25.6334 61.6882C25.6334 61.2266 25.7222 60.8466 25.8998 60.5483C26.0773 60.25 26.317 60.0138 26.6189 59.8398C26.9207 59.6658 27.2581 59.5344 27.6309 59.4457C28.0038 59.3569 28.3838 59.2894 28.7709 59.2433C29.2609 59.1864 29.6586 59.1403 29.964 59.1048C30.2694 59.0657 30.4914 59.0036 30.6299 58.9183C30.7684 58.8331 30.8376 58.6946 30.8376 58.5028V58.4656C30.8376 58.0004 30.7062 57.6399 30.4434 57.3842C30.1842 57.1286 29.7971 57.0007 29.2822 57.0007C28.746 57.0007 28.3234 57.1197 28.0145 57.3576C27.7091 57.592 27.4978 57.853 27.3806 58.1406L25.8838 57.7997C26.0613 57.3026 26.3206 56.9013 26.6615 56.5959C27.0059 56.2869 27.4019 56.0632 27.8493 55.9247C28.2968 55.7827 28.7673 55.7116 29.2609 55.7116C29.5876 55.7116 29.9339 55.7507 30.2996 55.8288C30.6689 55.9034 31.0134 56.0419 31.333 56.2443C31.6562 56.4467 31.9207 56.7362 32.1267 57.1126C32.3327 57.4854 32.4356 57.9702 32.4356 58.5668V64H30.8802V62.8814H30.8163C30.7133 63.0874 30.5589 63.2898 30.3529 63.4886C30.1469 63.6875 29.8824 63.8526 29.5592 63.984C29.2361 64.1154 28.849 64.1811 28.398 64.1811ZM28.7442 62.9027C29.1846 62.9027 29.561 62.8157 29.8735 62.6417C30.1895 62.4677 30.4292 62.2404 30.5926 61.9599C30.7595 61.6758 30.843 61.3722 30.843 61.049V59.9943C30.7861 60.0511 30.676 60.1044 30.5127 60.1541C30.3529 60.2003 30.17 60.2411 29.964 60.2766C29.7581 60.3086 29.5574 60.3388 29.3621 60.3672C29.1668 60.392 29.0035 60.4134 28.8721 60.4311C28.5631 60.4702 28.2808 60.5359 28.0251 60.6282C27.773 60.7205 27.5706 60.8537 27.4179 61.0277C27.2687 61.1982 27.1942 61.4254 27.1942 61.7095C27.1942 62.1037 27.3398 62.402 27.6309 62.6044C27.9221 62.8033 28.2932 62.9027 28.7442 62.9027ZM43.7096 60.6069V55.8182H45.3076V64H43.7416V62.5831H43.6563C43.4681 63.0199 43.1663 63.3839 42.7508 63.6751C42.3389 63.9627 41.8257 64.1065 41.2114 64.1065C40.6858 64.1065 40.2206 63.9911 39.8158 63.7603C39.4145 63.5259 39.0985 63.1797 38.8676 62.7216C38.6404 62.2635 38.5267 61.6971 38.5267 61.0224V55.8182H40.1194V60.8306C40.1194 61.3881 40.2739 61.832 40.5828 62.1623C40.8918 62.4925 41.2931 62.6577 41.7867 62.6577C42.085 62.6577 42.3815 62.5831 42.6762 62.4339C42.9745 62.2848 43.2213 62.0593 43.4166 61.7575C43.6155 61.4556 43.7132 61.0721 43.7096 60.6069ZM53.5787 57.8157L52.1351 58.0714C52.0748 57.8867 51.9789 57.7109 51.8475 57.544C51.7196 57.3771 51.5456 57.2404 51.3255 57.1339C51.1053 57.0273 50.8301 56.9741 50.4998 56.9741C50.0488 56.9741 49.6724 57.0753 49.3706 57.2777C49.0687 57.4766 48.9178 57.734 48.9178 58.0501C48.9178 58.3235 49.019 58.5437 49.2214 58.7106C49.4238 58.8775 49.7505 59.0142 50.2015 59.1207L51.5012 59.419C52.2541 59.593 52.8152 59.8612 53.1845 60.2234C53.5538 60.5856 53.7385 61.0561 53.7385 61.6349C53.7385 62.125 53.5964 62.5618 53.3123 62.9453C53.0318 63.3253 52.6394 63.6236 52.1351 63.8402C51.6344 64.0568 51.0538 64.1651 50.3933 64.1651C49.4771 64.1651 48.7296 63.9698 48.1507 63.5792C47.5719 63.185 47.2168 62.6257 47.0854 61.9013L48.6248 61.6669C48.7207 62.0682 48.9178 62.3718 49.2161 62.5778C49.5144 62.7802 49.9032 62.8814 50.3826 62.8814C50.9047 62.8814 51.3219 62.7731 51.6344 62.5565C51.9469 62.3363 52.1032 62.0682 52.1032 61.7521C52.1032 61.4964 52.0073 61.2816 51.8155 61.1076C51.6273 60.9336 51.3379 60.8022 50.9473 60.7134L49.5623 60.4098C48.7988 60.2358 48.2342 59.9588 47.8684 59.5788C47.5062 59.1989 47.3251 58.7177 47.3251 58.1353C47.3251 57.6523 47.46 57.2298 47.7299 56.8675C47.9998 56.5053 48.3727 56.223 48.8485 56.0206C49.3244 55.8146 49.8695 55.7116 50.4838 55.7116C51.3681 55.7116 52.0641 55.9034 52.5719 56.2869C53.0797 56.6669 53.4153 57.1765 53.5787 57.8157ZM57.8706 64.1811C57.3522 64.1811 56.8834 64.0852 56.4644 63.8935C56.0454 63.6982 55.7133 63.4158 55.4683 63.0465C55.2268 62.6772 55.1061 62.2244 55.1061 61.6882C55.1061 61.2266 55.1949 60.8466 55.3724 60.5483C55.55 60.25 55.7897 60.0138 56.0915 59.8398C56.3934 59.6658 56.7307 59.5344 57.1036 59.4457C57.4765 59.3569 57.8564 59.2894 58.2435 59.2433C58.7336 59.1864 59.1313 59.1403 59.4367 59.1048C59.7421 59.0657 59.964 59.0036 60.1025 58.9183C60.241 58.8331 60.3103 58.6946 60.3103 58.5028V58.4656C60.3103 58.0004 60.1789 57.6399 59.9161 57.3842C59.6569 57.1286 59.2698 57.0007 58.7549 57.0007C58.2187 57.0007 57.7961 57.1197 57.4871 57.3576C57.1817 57.592 56.9704 57.853 56.8532 58.1406L55.3564 57.7997C55.534 57.3026 55.7932 56.9013 56.1341 56.5959C56.4786 56.2869 56.8746 56.0632 57.322 55.9247C57.7694 55.7827 58.24 55.7116 58.7336 55.7116C59.0603 55.7116 59.4065 55.7507 59.7723 55.8288C60.1416 55.9034 60.4861 56.0419 60.8057 56.2443C61.1288 56.4467 61.3934 56.7362 61.5993 57.1126C61.8053 57.4854 61.9083 57.9702 61.9083 58.5668V64H60.3529V62.8814H60.289C60.186 63.0874 60.0315 63.2898 59.8256 63.4886C59.6196 63.6875 59.355 63.8526 59.0319 63.984C58.7087 64.1154 58.3216 64.1811 57.8706 64.1811ZM58.2169 62.9027C58.6572 62.9027 59.0336 62.8157 59.3461 62.6417C59.6622 62.4677 59.9019 62.2404 60.0653 61.9599C60.2322 61.6758 60.3156 61.3722 60.3156 61.049V59.9943C60.2588 60.0511 60.1487 60.1044 59.9854 60.1541C59.8256 60.2003 59.6427 60.2411 59.4367 60.2766C59.2307 60.3086 59.0301 60.3388 58.8348 60.3672C58.6395 60.392 58.4761 60.4134 58.3447 60.4311C58.0358 60.4702 57.7535 60.5359 57.4978 60.6282C57.2456 60.7205 57.0432 60.8537 56.8905 61.0277C56.7414 61.1982 56.6668 61.4254 56.6668 61.7095C56.6668 62.1037 56.8124 62.402 57.1036 62.6044C57.3948 62.8033 57.7659 62.9027 58.2169 62.9027ZM67.46 67.2386C66.8102 67.2386 66.2509 67.1534 65.7821 66.983C65.3169 66.8125 64.937 66.587 64.6422 66.3065C64.3475 66.0259 64.1273 65.7188 63.9817 65.3849L65.3507 64.8203C65.4466 64.9766 65.5744 65.1417 65.7342 65.3157C65.8975 65.4933 66.1177 65.6442 66.3947 65.7685C66.6752 65.8928 67.0357 65.9549 67.476 65.9549C68.0797 65.9549 68.5787 65.8075 68.9728 65.5128C69.367 65.2216 69.5641 64.7564 69.5641 64.1172V62.5085H69.4629C69.367 62.6825 69.2285 62.8761 69.0474 63.0891C68.8699 63.3022 68.6248 63.4869 68.3123 63.6431C67.9998 63.7994 67.5932 63.8775 67.0925 63.8775C66.4462 63.8775 65.8638 63.7266 65.3453 63.4247C64.8304 63.1193 64.4221 62.6701 64.1202 62.0771C63.8219 61.4805 63.6728 60.7472 63.6728 59.8771C63.6728 59.0071 63.8201 58.2614 64.1149 57.6399C64.4132 57.0185 64.8216 56.5426 65.34 56.2124C65.8585 55.8786 66.4462 55.7116 67.1032 55.7116C67.611 55.7116 68.0211 55.7969 68.3336 55.9673C68.6461 56.1342 68.8894 56.3295 69.0634 56.5533C69.2409 56.777 69.3777 56.9741 69.4735 57.1445H69.5907V55.8182H71.1515V64.1811C71.1515 64.8842 70.9881 65.4613 70.6614 65.9123C70.3347 66.3633 69.8926 66.6971 69.335 66.9137C68.7811 67.1303 68.1561 67.2386 67.46 67.2386ZM67.4441 62.5565C67.9022 62.5565 68.2892 62.4499 68.6053 62.2369C68.9249 62.0202 69.1664 61.7113 69.3297 61.31C69.4966 60.9052 69.5801 60.4205 69.5801 59.8558C69.5801 59.3054 69.4984 58.8207 69.335 58.4016C69.1717 57.9826 68.932 57.6559 68.6159 57.4215C68.2999 57.1836 67.9093 57.0646 67.4441 57.0646C66.9647 57.0646 66.5652 57.1889 66.2456 57.4375C65.926 57.6825 65.6845 58.0163 65.5211 58.4389C65.3613 58.8615 65.2814 59.3338 65.2814 59.8558C65.2814 60.392 65.3631 60.8626 65.5265 61.2674C65.6898 61.6722 65.9313 61.9883 66.2509 62.2156C66.574 62.4428 66.9718 62.5565 67.4441 62.5565ZM76.8137 64.1651C76.0076 64.1651 75.3134 63.9929 74.731 63.6484C74.1522 63.3004 73.7047 62.8121 73.3887 62.1836C73.0762 61.5515 72.9199 60.8111 72.9199 59.9624C72.9199 59.1243 73.0762 58.3857 73.3887 57.7464C73.7047 57.1072 74.1451 56.6083 74.7097 56.2496C75.2779 55.891 75.9419 55.7116 76.7019 55.7116C77.1635 55.7116 77.611 55.788 78.0442 55.9407C78.4775 56.0934 78.8663 56.3331 79.2108 56.6598C79.5552 56.9865 79.8269 57.4109 80.0257 57.9329C80.2246 58.4513 80.324 59.0817 80.324 59.8239V60.3885H73.8201V59.1953H78.7633C78.7633 58.7763 78.6781 58.4052 78.5076 58.082C78.3372 57.7553 78.0975 57.4979 77.7885 57.3097C77.4831 57.1214 77.1245 57.0273 76.7125 57.0273C76.2651 57.0273 75.8745 57.1374 75.5407 57.3576C75.2104 57.5742 74.9547 57.8583 74.7736 58.2099C74.5961 58.5579 74.5073 58.9361 74.5073 59.3445V60.2766C74.5073 60.8235 74.6032 61.2887 74.7949 61.6722C74.9902 62.0558 75.2619 62.3487 75.6099 62.5511C75.9579 62.75 76.3645 62.8494 76.8297 62.8494C77.1316 62.8494 77.4068 62.8068 77.6554 62.7216C77.9039 62.6328 78.1188 62.5014 78.2999 62.3274C78.481 62.1534 78.6195 61.9386 78.7154 61.6829L80.2228 61.9545C80.1021 62.3984 79.8855 62.7873 79.573 63.1211C79.264 63.4513 78.8752 63.7088 78.4064 63.8935C77.9412 64.0746 77.4103 64.1651 76.8137 64.1651Z" fill="white"/>
</svg>
