<svg width="88" height="22" viewBox="0 0 88 22" fill="none" xmlns="http://www.w3.org/2000/svg">
<path d="M3.79508 5.7L10.7151 1.7C11.1684 1.43333 11.5684 1.4 11.9151 1.6C12.2751 1.8 12.4551 2.16667 12.4551 2.7V15.5L10.7151 16.5V3.7L8.11508 5.2V18L6.37508 19V6.2L3.79508 7.7V20.5L2.05508 21.5V8.7C2.05508 8.34 2.13508 7.96667 2.29508 7.58C2.45508 7.18 2.66841 6.81333 2.93508 6.48C3.20174 6.13333 3.48841 5.87333 3.79508 5.7ZM10.7151 3.7V16.5L8.97508 15.5V2.7L10.7151 3.7ZM6.37508 6.2V19L4.65508 18V5.2L6.37508 6.2ZM11.9151 1.6C11.5684 1.4 11.1684 1.43333 10.7151 1.7L3.79508 5.7C3.48841 5.87333 3.20174 6.13333 2.93508 6.48C2.66841 6.81333 2.45508 7.18 2.29508 7.58C2.13508 7.96667 2.05508 8.34 2.05508 8.7V21.5L0.315078 20.5V7.7C0.315078 7.34 0.395078 6.96667 0.555078 6.58C0.715078 6.18 0.928412 5.81333 1.19508 5.48C1.46174 5.13333 1.74841 4.87333 2.05508 4.7L8.97508 0.699999C9.44175 0.433333 9.84841 0.4 10.1951 0.599999L11.9151 1.6ZM19.6623 9.7L23.1223 7.7C23.5756 7.43333 23.9756 7.4 24.3223 7.6C24.6689 7.8 24.8423 8.16667 24.8423 8.7V11.7C24.8423 12.0467 24.7623 12.42 24.6023 12.82C24.4423 13.22 24.2289 13.5933 23.9623 13.94C23.7089 14.2733 23.4289 14.5267 23.1223 14.7L21.3823 15.7C20.9289 15.9667 20.5289 16 20.1823 15.8C19.8356 15.6 19.6623 15.2333 19.6623 14.7V19.3L24.8423 16.3V18.3L19.6623 21.3C19.1956 21.5667 18.7889 21.6 18.4423 21.4C18.0956 21.2 17.9223 20.8333 17.9223 20.3V12.7C17.9223 12.34 18.0023 11.9667 18.1623 11.58C18.3223 11.18 18.5356 10.8133 18.8023 10.48C19.0689 10.1333 19.3556 9.87333 19.6623 9.7ZM23.1223 9.7L19.6623 11.7V14.7L23.1223 12.7V9.7ZM24.8423 16.3L19.6623 19.3L17.9223 18.3L23.1223 15.3L24.8423 16.3ZM23.1223 9.7V12.7L21.3823 11.7V8.7L23.1223 9.7ZM19.6623 14.7C19.6623 15.2333 19.8356 15.6 20.1823 15.8L18.4423 14.8C18.0956 14.6 17.9223 14.2333 17.9223 13.7L19.6623 14.7ZM23.1223 12.7L19.6623 14.7L17.9223 13.7L21.3823 11.7L23.1223 12.7ZM24.3223 7.6C23.9756 7.4 23.5756 7.43333 23.1223 7.7L19.6623 9.7C19.3556 9.87333 19.0689 10.1333 18.8023 10.48C18.5356 10.8133 18.3223 11.18 18.1623 11.58C18.0023 11.9667 17.9223 12.34 17.9223 12.7V20.3C17.9223 20.8333 18.0956 21.2 18.4423 21.4L16.7023 20.4C16.3556 20.2 16.1823 19.8333 16.1823 19.3V11.7C16.1823 11.34 16.2623 10.9667 16.4223 10.58C16.5823 10.18 16.7956 9.81333 17.0623 9.48C17.3289 9.13333 17.6156 8.87333 17.9223 8.7L21.3823 6.7C21.8489 6.43333 22.2556 6.4 22.6023 6.6L24.3223 7.6ZM32.0529 10.5L33.7729 9.5C34.2396 9.23333 34.6462 9.2 34.9929 9.4C35.3396 9.6 35.5129 9.96667 35.5129 10.5V5.5L37.2329 4.5V18.3C36.7796 18.5667 36.3796 18.6 36.0329 18.4C35.6862 18.2 35.5129 17.8333 35.5129 17.3C35.5129 17.6467 35.4329 18.02 35.2729 18.42C35.1129 18.82 34.8996 19.1933 34.6329 19.54C34.3662 19.8733 34.0796 20.1267 33.7729 20.3L32.0529 21.3C31.5862 21.5667 31.1796 21.6 30.8329 21.4C30.4862 21.2 30.3129 20.8333 30.3129 20.3V13.5C30.3129 13.14 30.3929 12.7667 30.5529 12.38C30.7129 11.98 30.9262 11.6133 31.1929 11.28C31.4596 10.9333 31.7462 10.6733 32.0529 10.5ZM32.0529 12.5V19.3L35.5129 17.3V10.5L32.0529 12.5ZM35.5129 17.3C35.5129 17.8333 35.6862 18.2 36.0329 18.4L34.2929 17.4C33.9462 17.2 33.7729 16.8333 33.7729 16.3L35.5129 17.3ZM37.2329 4.5L35.5129 5.5L33.7729 4.5L35.5129 3.5L37.2329 4.5ZM35.5129 5.5V10.5L33.7729 9.5V4.5L35.5129 5.5ZM35.5129 10.5V17.3L33.7729 16.3V9.5L35.5129 10.5ZM35.5129 17.3L32.0529 19.3L30.3129 18.3L33.7729 16.3L35.5129 17.3ZM34.9929 9.4C34.6462 9.2 34.2396 9.23333 33.7729 9.5L32.0529 10.5C31.7462 10.6733 31.4596 10.9333 31.1929 11.28C30.9262 11.6133 30.7129 11.98 30.5529 12.38C30.3929 12.7667 30.3129 13.14 30.3129 13.5V20.3C30.3129 20.8333 30.4862 21.2 30.8329 21.4L29.0929 20.4C28.7462 20.2 28.5729 19.8333 28.5729 19.3V12.5C28.5729 12.14 28.6529 11.7667 28.8129 11.38C28.9729 10.98 29.1862 10.6133 29.4529 10.28C29.7196 9.93333 30.0062 9.67333 30.3129 9.5L32.0529 8.5C32.5062 8.23333 32.9062 8.2 33.2529 8.4L34.9929 9.4ZM45.3035 18V12L42.7035 13.5V11.5L49.6235 7.5V9.5L47.0235 11V17L49.6235 15.5V17.5L42.7035 21.5V19.5L45.3035 18ZM46.1635 7.7C45.8168 7.9 45.5235 7.93333 45.2835 7.8C45.0568 7.66667 44.9435 7.4 44.9435 7C44.9435 6.6 45.0568 6.2 45.2835 5.8C45.5235 5.4 45.8168 5.1 46.1635 4.9C46.5102 4.7 46.7968 4.66667 47.0235 4.8C47.2635 4.93333 47.3835 5.2 47.3835 5.6C47.3835 6 47.2635 6.4 47.0235 6.8C46.7968 7.2 46.5102 7.5 46.1635 7.7ZM45.3035 18L42.7035 19.5L40.9635 18.5L43.5635 17L45.3035 18ZM42.7035 19.5V21.5L40.9635 20.5V18.5L42.7035 19.5ZM49.6235 15.5L47.0235 17L45.3035 16L47.9035 14.5L49.6235 15.5ZM45.3035 12V18L43.5635 17V11L45.3035 12ZM49.6235 7.5L42.7035 11.5L40.9635 10.5L47.9035 6.5L49.6235 7.5ZM42.7035 11.5V13.5L40.9635 12.5V10.5L42.7035 11.5ZM47.0435 4.8C46.8035 4.66667 46.5102 4.7 46.1635 4.9C45.8168 5.1 45.5235 5.4 45.2835 5.8C45.0568 6.2 44.9435 6.6 44.9435 7C44.9435 7.4 45.0635 7.66667 45.3035 7.8L43.5635 6.8C43.3368 6.66667 43.2235 6.4 43.2235 6C43.2235 5.6 43.3368 5.2 43.5635 4.8C43.7902 4.4 44.0835 4.1 44.4435 3.9C44.7902 3.7 45.0768 3.66667 45.3035 3.8L47.0435 4.8ZM55.0941 10.7L60.2941 7.7C60.7475 7.43333 61.1475 7.4 61.4941 7.6C61.8408 7.8 62.0141 8.16667 62.0141 8.7V18.3L60.2941 19.3V17.3C60.2941 17.6467 60.2141 18.02 60.0541 18.42C59.8941 18.82 59.6808 19.1933 59.4141 19.54C59.1475 19.8733 58.8608 20.1267 58.5541 20.3L56.8341 21.3C56.3675 21.5667 55.9608 21.6 55.6141 21.4C55.2675 21.2 55.0941 20.8333 55.0941 20.3V17.5C55.0941 17.14 55.1741 16.7667 55.3341 16.38C55.4941 15.98 55.7075 15.6133 55.9741 15.28C56.2408 14.9333 56.5275 14.6733 56.8341 14.5L60.2941 12.5V9.7L55.0941 12.7V10.7ZM56.8341 19.3L60.2941 17.3V14.5L56.8341 16.5V19.3ZM60.2941 9.7V12.5L58.5541 11.5V8.7L60.2941 9.7ZM60.2941 17.3V19.3L58.5541 18.3V16.3L60.2941 17.3ZM60.2941 14.5V17.3L58.5541 16.3V13.5L60.2941 14.5ZM60.2941 17.3L56.8341 19.3L55.0941 18.3L58.5541 16.3L60.2941 17.3ZM60.2941 12.5L56.8341 14.5C56.5275 14.6733 56.2408 14.9333 55.9741 15.28C55.7075 15.6133 55.4941 15.98 55.3341 16.38C55.1741 16.7667 55.0941 17.14 55.0941 17.5V20.3C55.0941 20.8333 55.2675 21.2 55.6141 21.4L53.8741 20.4C53.5275 20.2 53.3541 19.8333 53.3541 19.3V16.5C53.3541 16.14 53.4341 15.7667 53.5941 15.38C53.7541 14.98 53.9675 14.6133 54.2341 14.28C54.5008 13.9333 54.7875 13.6733 55.0941 13.5L58.5541 11.5L60.2941 12.5ZM61.4941 7.6C61.1475 7.4 60.7475 7.43333 60.2941 7.7L55.0941 10.7L53.3541 9.7L58.5541 6.7C59.0208 6.43333 59.4275 6.4 59.7741 6.6L61.4941 7.6ZM55.0941 10.7V12.7L53.3541 11.7V9.7L55.0941 10.7ZM69.2248 5.7L73.5448 3.2C73.9981 2.93333 74.3981 2.9 74.7448 3.1C75.1048 3.3 75.2848 3.66667 75.2848 4.2V6.2L73.5448 7.2V5.2L69.2248 7.7V19.3L73.5448 16.8V14.8L75.2848 13.8V15.8C75.2848 16.1467 75.1981 16.52 75.0248 16.92C74.8648 17.32 74.6514 17.6933 74.3848 18.04C74.1314 18.3733 73.8514 18.6267 73.5448 18.8L69.2248 21.3C68.7581 21.5667 68.3514 21.6 68.0048 21.4C67.6581 21.2 67.4848 20.8333 67.4848 20.3V8.7C67.4848 8.34 67.5648 7.96667 67.7248 7.58C67.8848 7.18 68.0981 6.81333 68.3648 6.48C68.6314 6.13333 68.9181 5.87333 69.2248 5.7ZM75.2848 13.8L73.5448 14.8L75.2848 13.8ZM73.5448 14.8V16.8V14.8ZM73.5448 16.8L69.2248 19.3L73.5448 16.8ZM73.5448 5.2V7.2V5.2ZM74.7648 3.1C74.4048 2.9 73.9981 2.93333 73.5448 3.2L69.2248 5.7C68.9181 5.87333 68.6314 6.13333 68.3648 6.48C68.0981 6.81333 67.8848 7.18 67.7248 7.58C67.5648 7.96667 67.4848 8.34 67.4848 8.7V20.3C67.4848 20.8333 67.6581 21.2 68.0048 21.4C67.6581 21.2 67.4848 20.8333 67.4848 20.3V8.7C67.4848 8.34 67.5648 7.96667 67.7248 7.58C67.8848 7.18 68.0981 6.81333 68.3648 6.48C68.6314 6.13333 68.9181 5.87333 69.2248 5.7L73.5448 3.2C73.9981 2.93333 74.4048 2.9 74.7648 3.1ZM82.4943 9.7L85.9543 7.7C86.4076 7.43333 86.8076 7.4 87.1543 7.6C87.501 7.8 87.6743 8.16667 87.6743 8.7V16.3C87.6743 16.6467 87.5943 17.02 87.4343 17.42C87.2743 17.82 87.061 18.1933 86.7943 18.54C86.541 18.8733 86.261 19.1267 85.9543 19.3L82.4943 21.3C82.0276 21.5667 81.621 21.6 81.2743 21.4C80.9276 21.2 80.7543 20.8333 80.7543 20.3V12.7C80.7543 12.34 80.8343 11.9667 80.9943 11.58C81.1543 11.18 81.3676 10.8133 81.6343 10.48C81.901 10.1333 82.1876 9.87333 82.4943 9.7ZM82.4943 19.3L85.9543 17.3V9.7L82.4943 11.7V19.3ZM85.9543 9.7V17.3V9.7ZM85.9543 17.3L82.4943 19.3L85.9543 17.3ZM87.1543 7.6C86.8076 7.4 86.4076 7.43333 85.9543 7.7L82.4943 9.7C82.1876 9.87333 81.901 10.1333 81.6343 10.48C81.3676 10.8133 81.1543 11.18 80.9943 11.58C80.8343 11.9667 80.7543 12.34 80.7543 12.7V20.3C80.7543 20.8333 80.9276 21.2 81.2743 21.4C80.9276 21.2 80.7543 20.8333 80.7543 20.3V12.7C80.7543 12.34 80.8343 11.9667 80.9943 11.58C81.1543 11.18 81.3676 10.8133 81.6343 10.48C81.901 10.1333 82.1876 9.87333 82.4943 9.7L85.9543 7.7C86.4076 7.43333 86.8076 7.4 87.1543 7.6Z" fill="white"/>
</svg>
