<svg width="358" height="108" viewBox="0 0 358 108" fill="none" xmlns="http://www.w3.org/2000/svg">
<rect width="358" height="108" rx="18" fill="#5A6882" fill-opacity="0.35"/>
<path d="M17.4382 34V20.9091H22.2322C23.1612 20.9091 23.9304 21.0625 24.5398 21.3693C25.1491 21.6719 25.6051 22.0831 25.9077 22.603C26.2102 23.1186 26.3615 23.7003 26.3615 24.348C26.3615 24.8935 26.2614 25.3537 26.0611 25.7287C25.8608 26.0994 25.5923 26.3977 25.2557 26.6236C24.9233 26.8452 24.5568 27.0071 24.1562 27.1094V27.2372C24.5909 27.2585 25.0149 27.3991 25.4283 27.6591C25.8459 27.9148 26.1911 28.2791 26.4638 28.7521C26.7365 29.2251 26.8729 29.8004 26.8729 30.478C26.8729 31.147 26.7152 31.7479 26.3999 32.2805C26.0888 32.8089 25.6072 33.2287 24.9553 33.5398C24.3033 33.8466 23.4702 34 22.456 34H17.4382ZM19.4134 32.3061H22.2642C23.2102 32.3061 23.8878 32.1229 24.2969 31.7564C24.706 31.3899 24.9105 30.9318 24.9105 30.3821C24.9105 29.9687 24.8061 29.5895 24.5973 29.2443C24.3885 28.8991 24.0902 28.6243 23.7024 28.4197C23.3189 28.2152 22.8629 28.1129 22.3345 28.1129H19.4134V32.3061ZM19.4134 26.5724H22.0597C22.5028 26.5724 22.9013 26.4872 23.255 26.3168C23.6129 26.1463 23.8963 25.9077 24.1051 25.6009C24.3182 25.2898 24.4247 24.9233 24.4247 24.5014C24.4247 23.9602 24.2351 23.5064 23.8558 23.1399C23.4766 22.7734 22.8949 22.5902 22.1108 22.5902H19.4134V26.5724ZM30.0734 20.9091V34H28.1621V20.9091H30.0734ZM34.6018 34.2173C33.9797 34.2173 33.4172 34.1023 32.9143 33.8722C32.4115 33.6378 32.013 33.299 31.719 32.8558C31.4292 32.4126 31.2843 31.8693 31.2843 31.2259C31.2843 30.6719 31.3909 30.2159 31.6039 29.858C31.817 29.5 32.1047 29.2166 32.4669 29.0078C32.8291 28.799 33.2339 28.6413 33.6814 28.5348C34.1288 28.4283 34.5848 28.3473 35.0493 28.2919C35.6373 28.2237 36.1146 28.1683 36.4811 28.1257C36.8475 28.0788 37.1139 28.0043 37.2801 27.902C37.4463 27.7997 37.5294 27.6335 37.5294 27.4034V27.3587C37.5294 26.8004 37.3717 26.3679 37.0564 26.0611C36.7453 25.7543 36.2808 25.6009 35.6629 25.6009C35.0194 25.6009 34.5123 25.7436 34.1416 26.0291C33.7751 26.3104 33.5216 26.6236 33.3809 26.9688L31.5848 26.5597C31.7978 25.9631 32.1089 25.4815 32.518 25.1151C32.9314 24.7443 33.4065 24.4759 33.9434 24.3097C34.4804 24.1392 35.045 24.054 35.6373 24.054C36.0294 24.054 36.4449 24.1009 36.8838 24.1946C37.327 24.2841 37.7403 24.4503 38.1238 24.6932C38.5116 24.9361 38.8291 25.2834 39.0762 25.7351C39.3234 26.1825 39.447 26.7642 39.447 27.4801V34H37.5805V32.6577H37.5038C37.3802 32.9048 37.1949 33.1477 36.9477 33.3864C36.7005 33.625 36.3831 33.8232 35.9953 33.9808C35.6075 34.1385 35.143 34.2173 34.6018 34.2173ZM35.0173 32.6832C35.5457 32.6832 35.9974 32.5788 36.3724 32.37C36.7517 32.1612 37.0393 31.8885 37.2353 31.5518C37.4356 31.2109 37.5358 30.8466 37.5358 30.4588V29.1932C37.4676 29.2614 37.3355 29.3253 37.1395 29.3849C36.9477 29.4403 36.7282 29.4893 36.4811 29.532C36.2339 29.5703 35.9931 29.6065 35.7588 29.6406C35.5244 29.6705 35.3284 29.696 35.1707 29.7173C34.8 29.7642 34.4612 29.843 34.1544 29.9538C33.8518 30.0646 33.6089 30.2244 33.4257 30.4332C33.2467 30.6378 33.1572 30.9105 33.1572 31.2514C33.1572 31.7244 33.3319 32.0824 33.6814 32.3253C34.0308 32.5639 34.4761 32.6832 35.0173 32.6832ZM40.8881 34V32.6896L46.2062 25.9332V25.8438H41.0607V24.1818H48.5905V25.5753L43.4768 32.2486V32.3381H48.7695V34H40.8881ZM50.1243 34V24.1818H52.0355V34H50.1243ZM51.0895 22.6669C50.7571 22.6669 50.4716 22.5561 50.2329 22.3345C49.9985 22.1087 49.8814 21.8402 49.8814 21.5291C49.8814 21.2138 49.9985 20.9453 50.2329 20.7237C50.4716 20.4979 50.7571 20.3849 51.0895 20.3849C51.4218 20.3849 51.7052 20.4979 51.9396 20.7237C52.1782 20.9453 52.2976 21.2138 52.2976 21.5291C52.2976 21.8402 52.1782 22.1087 51.9396 22.3345C51.7052 22.5561 51.4218 22.6669 51.0895 22.6669ZM55.6179 28.1705V34H53.7067V24.1818H55.5412V25.7798H55.6626C55.8885 25.2599 56.2422 24.8423 56.7237 24.527C57.2095 24.2116 57.821 24.054 58.5582 24.054C59.2273 24.054 59.8132 24.1946 60.3161 24.4759C60.8189 24.7528 61.2088 25.1662 61.4858 25.7159C61.7628 26.2656 61.9013 26.9453 61.9013 27.755V34H59.9901V27.9851C59.9901 27.2734 59.8047 26.7173 59.4339 26.3168C59.0632 25.9119 58.554 25.7095 57.9062 25.7095C57.4631 25.7095 57.0689 25.8054 56.7237 25.9972C56.3828 26.1889 56.1122 26.4702 55.9119 26.8409C55.7159 27.2074 55.6179 27.6506 55.6179 28.1705ZM67.681 37.8864C66.9011 37.8864 66.23 37.7841 65.6675 37.5795C65.1092 37.375 64.6533 37.1044 64.2996 36.7678C63.9459 36.4311 63.6817 36.0625 63.507 35.6619L65.1497 34.9844C65.2648 35.1719 65.4182 35.37 65.6099 35.5788C65.806 35.7919 66.0702 35.973 66.4026 36.1222C66.7392 36.2713 67.1717 36.3459 67.7001 36.3459C68.4246 36.3459 69.0233 36.169 69.4963 35.8153C69.9693 35.4659 70.2058 34.9077 70.2058 34.1406V32.2102H70.0844C69.9693 32.419 69.8031 32.6513 69.5858 32.907C69.3727 33.1626 69.0787 33.3842 68.7037 33.5717C68.3287 33.7592 67.8408 33.853 67.2399 33.853C66.4643 33.853 65.7655 33.6719 65.1433 33.3097C64.5254 32.9432 64.0354 32.4041 63.6732 31.6925C63.3152 30.9766 63.1362 30.0966 63.1362 29.0526C63.1362 28.0085 63.3131 27.1136 63.6668 26.3679C64.0247 25.6222 64.5148 25.0511 65.1369 24.6548C65.7591 24.2543 66.4643 24.054 67.2527 24.054C67.8621 24.054 68.3543 24.1562 68.7293 24.3608C69.1043 24.5611 69.3962 24.7955 69.605 25.0639C69.818 25.3324 69.9821 25.5689 70.0972 25.7734H70.2378V24.1818H72.1107V34.2173C72.1107 35.0611 71.9146 35.7536 71.5226 36.2947C71.1305 36.8359 70.6 37.2365 69.931 37.4964C69.2662 37.7564 68.5162 37.8864 67.681 37.8864ZM67.6618 32.2678C68.2115 32.2678 68.676 32.1399 69.0553 31.8842C69.4388 31.6243 69.7285 31.2536 69.9246 30.772C70.1249 30.2862 70.225 29.7045 70.225 29.027C70.225 28.3665 70.127 27.7848 69.931 27.282C69.7349 26.7791 69.4473 26.3871 69.068 26.1058C68.6888 25.8203 68.22 25.6776 67.6618 25.6776C67.0865 25.6776 66.6071 25.8267 66.2236 26.125C65.8401 26.419 65.5503 26.8196 65.3543 27.3267C65.1625 27.8338 65.0666 28.4006 65.0666 29.027C65.0666 29.6705 65.1646 30.2351 65.3607 30.7209C65.5567 31.2067 65.8464 31.5859 66.23 31.8587C66.6178 32.1314 67.095 32.2678 67.6618 32.2678ZM82.3101 24.1818V25.7159H76.7618V24.1818H82.3101ZM78.2831 34V23.044C78.2831 22.4304 78.4174 21.9212 78.6858 21.5163C78.9543 21.1072 79.3101 20.8026 79.7533 20.6023C80.1965 20.3977 80.678 20.2955 81.1979 20.2955C81.5814 20.2955 81.9096 20.3274 82.1823 20.3913C82.455 20.451 82.6574 20.5064 82.7895 20.5575L82.3421 22.1044C82.2526 22.0788 82.1375 22.049 81.9969 22.0149C81.8563 21.9766 81.6858 21.9574 81.4855 21.9574C81.0211 21.9574 80.6887 22.0724 80.4884 22.3026C80.2924 22.5327 80.1944 22.8651 80.1944 23.2997V34H78.2831ZM85.9405 34.2173C85.3183 34.2173 84.7558 34.1023 84.253 33.8722C83.7501 33.6378 83.3517 33.299 83.0577 32.8558C82.7679 32.4126 82.623 31.8693 82.623 31.2259C82.623 30.6719 82.7295 30.2159 82.9426 29.858C83.1557 29.5 83.4433 29.2166 83.8055 29.0078C84.1678 28.799 84.5726 28.6413 85.02 28.5348C85.4675 28.4283 85.9234 28.3473 86.3879 28.2919C86.976 28.2237 87.4533 28.1683 87.8197 28.1257C88.1862 28.0788 88.4526 28.0043 88.6188 27.902C88.7849 27.7997 88.868 27.6335 88.868 27.4034V27.3587C88.868 26.8004 88.7104 26.3679 88.395 26.0611C88.084 25.7543 87.6195 25.6009 87.0016 25.6009C86.3581 25.6009 85.851 25.7436 85.4803 26.0291C85.1138 26.3104 84.8602 26.6236 84.7196 26.9688L82.9234 26.5597C83.1365 25.9631 83.4476 25.4815 83.8567 25.1151C84.27 24.7443 84.7452 24.4759 85.2821 24.3097C85.819 24.1392 86.3837 24.054 86.976 24.054C87.368 24.054 87.7835 24.1009 88.2224 24.1946C88.6656 24.2841 89.079 24.4503 89.4625 24.6932C89.8503 24.9361 90.1678 25.2834 90.4149 25.7351C90.6621 26.1825 90.7857 26.7642 90.7857 27.4801V34H88.9192V32.6577H88.8425C88.7189 32.9048 88.5335 33.1477 88.2864 33.3864C88.0392 33.625 87.7217 33.8232 87.334 33.9808C86.9462 34.1385 86.4817 34.2173 85.9405 34.2173ZM86.356 32.6832C86.8844 32.6832 87.3361 32.5788 87.7111 32.37C88.0903 32.1612 88.378 31.8885 88.574 31.5518C88.7743 31.2109 88.8744 30.8466 88.8744 30.4588V29.1932C88.8063 29.2614 88.6741 29.3253 88.4781 29.3849C88.2864 29.4403 88.0669 29.4893 87.8197 29.532C87.5726 29.5703 87.3318 29.6065 87.0974 29.6406C86.8631 29.6705 86.667 29.696 86.5094 29.7173C86.1386 29.7642 85.7999 29.843 85.493 29.9538C85.1905 30.0646 84.9476 30.2244 84.7643 30.4332C84.5854 30.6378 84.4959 30.9105 84.4959 31.2514C84.4959 31.7244 84.6706 32.0824 85.02 32.3253C85.3695 32.5639 85.8148 32.6832 86.356 32.6832ZM99.7885 26.5788L98.0563 26.8857C97.9838 26.6641 97.8688 26.4531 97.7111 26.2528C97.5577 26.0526 97.3489 25.8885 97.0847 25.7607C96.8205 25.6328 96.4902 25.5689 96.0939 25.5689C95.5527 25.5689 95.101 25.6903 94.7388 25.9332C94.3766 26.1719 94.1955 26.4808 94.1955 26.8601C94.1955 27.1882 94.3169 27.4524 94.5598 27.6527C94.8027 27.853 95.1948 28.017 95.736 28.1449L97.2956 28.5028C98.199 28.7116 98.8723 29.0334 99.3155 29.468C99.7587 29.9027 99.9803 30.4673 99.9803 31.1619C99.9803 31.75 99.8098 32.2741 99.4689 32.7344C99.1323 33.1903 98.6614 33.5483 98.0563 33.8082C97.4554 34.0682 96.7587 34.1982 95.9661 34.1982C94.8667 34.1982 93.9696 33.9638 93.275 33.495C92.5804 33.022 92.1543 32.3509 91.9966 31.4815L93.8439 31.2003C93.959 31.6818 94.1955 32.0462 94.5534 32.2933C94.9114 32.5362 95.378 32.6577 95.9533 32.6577C96.5797 32.6577 97.0804 32.5277 97.4554 32.2678C97.8304 32.0036 98.0179 31.6818 98.0179 31.3026C98.0179 30.9957 97.9029 30.7379 97.6728 30.5291C97.4469 30.3203 97.0996 30.1626 96.6309 30.0561L94.9689 29.6918C94.0527 29.483 93.3752 29.1506 92.9363 28.6946C92.5016 28.2386 92.2843 27.6612 92.2843 26.9624C92.2843 26.3828 92.4462 25.8757 92.7701 25.4411C93.0939 25.0064 93.5414 24.6676 94.1124 24.4247C94.6834 24.1776 95.3375 24.054 96.0748 24.054C97.1358 24.054 97.9711 24.2841 98.5804 24.7443C99.1898 25.2003 99.5925 25.8118 99.7885 26.5788ZM105.765 24.1818V25.7159H100.402V24.1818H105.765ZM101.84 21.8295H103.751V31.1172C103.751 31.4879 103.807 31.767 103.917 31.9545C104.028 32.1378 104.171 32.2635 104.346 32.3317C104.525 32.3956 104.719 32.4276 104.927 32.4276C105.081 32.4276 105.215 32.4169 105.33 32.3956C105.445 32.3743 105.535 32.3572 105.599 32.3445L105.944 33.9233C105.833 33.9659 105.675 34.0085 105.471 34.0511C105.266 34.098 105.011 34.1236 104.704 34.1278C104.201 34.1364 103.732 34.0469 103.297 33.8594C102.863 33.6719 102.511 33.3821 102.243 32.9901C101.974 32.598 101.84 32.1058 101.84 31.5135V21.8295ZM110.843 34V24.1818H112.754V34H110.843ZM111.808 22.6669C111.475 22.6669 111.19 22.5561 110.951 22.3345C110.717 22.1087 110.6 21.8402 110.6 21.5291C110.6 21.2138 110.717 20.9453 110.951 20.7237C111.19 20.4979 111.475 20.3849 111.808 20.3849C112.14 20.3849 112.424 20.4979 112.658 20.7237C112.897 20.9453 113.016 21.2138 113.016 21.5291C113.016 21.8402 112.897 22.1087 112.658 22.3345C112.424 22.5561 112.14 22.6669 111.808 22.6669ZM116.336 28.1705V34H114.425V24.1818H116.26V25.7798H116.381C116.607 25.2599 116.961 24.8423 117.442 24.527C117.928 24.2116 118.539 24.054 119.277 24.054C119.946 24.054 120.532 24.1946 121.034 24.4759C121.537 24.7528 121.927 25.1662 122.204 25.7159C122.481 26.2656 122.62 26.9453 122.62 27.755V34H120.708V27.9851C120.708 27.2734 120.523 26.7173 120.152 26.3168C119.782 25.9119 119.272 25.7095 118.625 25.7095C118.181 25.7095 117.787 25.8054 117.442 25.9972C117.101 26.1889 116.831 26.4702 116.63 26.8409C116.434 27.2074 116.336 27.6506 116.336 28.1705ZM128.866 24.1818V25.7159H123.503V24.1818H128.866ZM124.941 21.8295H126.852V31.1172C126.852 31.4879 126.908 31.767 127.019 31.9545C127.129 32.1378 127.272 32.2635 127.447 32.3317C127.626 32.3956 127.82 32.4276 128.029 32.4276C128.182 32.4276 128.316 32.4169 128.431 32.3956C128.546 32.3743 128.636 32.3572 128.7 32.3445L129.045 33.9233C128.934 33.9659 128.776 34.0085 128.572 34.0511C128.367 34.098 128.112 34.1236 127.805 34.1278C127.302 34.1364 126.833 34.0469 126.399 33.8594C125.964 33.6719 125.612 33.3821 125.344 32.9901C125.075 32.598 124.941 32.1058 124.941 31.5135V21.8295ZM134.206 34.1982C133.239 34.1982 132.406 33.9915 131.707 33.5781C131.012 33.1605 130.475 32.5746 130.096 31.8203C129.721 31.0618 129.534 30.1733 129.534 29.1548C129.534 28.1491 129.721 27.2628 130.096 26.4957C130.475 25.7287 131.004 25.13 131.681 24.6996C132.363 24.2692 133.16 24.054 134.072 24.054C134.626 24.054 135.163 24.1456 135.683 24.3288C136.203 24.5121 136.669 24.7997 137.083 25.1918C137.496 25.5838 137.822 26.093 138.061 26.7195C138.299 27.3416 138.419 28.098 138.419 28.9886V29.6662H130.614V28.2344H136.546C136.546 27.7315 136.443 27.2862 136.239 26.8984C136.034 26.5064 135.747 26.1974 135.376 25.9716C135.009 25.7457 134.579 25.6328 134.085 25.6328C133.548 25.6328 133.079 25.7649 132.678 26.0291C132.282 26.2891 131.975 26.63 131.758 27.0518C131.545 27.4695 131.438 27.9233 131.438 28.4134V29.532C131.438 30.1882 131.553 30.7464 131.784 31.2067C132.018 31.6669 132.344 32.0185 132.762 32.2614C133.179 32.5 133.667 32.6193 134.225 32.6193C134.588 32.6193 134.918 32.5682 135.216 32.4659C135.514 32.3594 135.772 32.2017 135.99 31.9929C136.207 31.7841 136.373 31.5263 136.488 31.2195L138.297 31.5455C138.152 32.0781 137.892 32.5447 137.517 32.9453C137.147 33.3416 136.68 33.6506 136.117 33.8722C135.559 34.0895 134.922 34.1982 134.206 34.1982ZM139.639 34V24.1818H141.486V25.7415H141.589C141.768 25.2131 142.083 24.7976 142.535 24.495C142.991 24.1882 143.506 24.0348 144.082 24.0348C144.201 24.0348 144.342 24.0391 144.503 24.0476C144.67 24.0561 144.8 24.0668 144.893 24.0795V25.9077C144.817 25.8864 144.68 25.8629 144.484 25.8374C144.288 25.8075 144.092 25.7926 143.896 25.7926C143.444 25.7926 143.042 25.8885 142.688 26.0803C142.339 26.2678 142.062 26.5298 141.857 26.8665C141.653 27.1989 141.55 27.5781 141.55 28.0043V34H139.639ZM147.559 28.1705V34H145.647V24.1818H147.482V25.7798H147.603C147.829 25.2599 148.183 24.8423 148.664 24.527C149.15 24.2116 149.762 24.054 150.499 24.054C151.168 24.054 151.754 24.1946 152.257 24.4759C152.76 24.7528 153.149 25.1662 153.426 25.7159C153.703 26.2656 153.842 26.9453 153.842 27.755V34H151.931V27.9851C151.931 27.2734 151.745 26.7173 151.375 26.3168C151.004 25.9119 150.495 25.7095 149.847 25.7095C149.404 25.7095 149.01 25.8054 148.664 25.9972C148.323 26.1889 148.053 26.4702 147.853 26.8409C147.657 27.2074 147.559 27.6506 147.559 28.1705ZM159.737 34.1982C158.769 34.1982 157.936 33.9915 157.237 33.5781C156.543 33.1605 156.006 32.5746 155.627 31.8203C155.252 31.0618 155.064 30.1733 155.064 29.1548C155.064 28.1491 155.252 27.2628 155.627 26.4957C156.006 25.7287 156.534 25.13 157.212 24.6996C157.894 24.2692 158.69 24.054 159.602 24.054C160.156 24.054 160.693 24.1456 161.213 24.3288C161.733 24.5121 162.2 24.7997 162.613 25.1918C163.026 25.5838 163.352 26.093 163.591 26.7195C163.83 27.3416 163.949 28.098 163.949 28.9886V29.6662H156.144V28.2344H162.076C162.076 27.7315 161.974 27.2862 161.769 26.8984C161.565 26.5064 161.277 26.1974 160.906 25.9716C160.54 25.7457 160.11 25.6328 159.615 25.6328C159.078 25.6328 158.61 25.7649 158.209 26.0291C157.813 26.2891 157.506 26.63 157.288 27.0518C157.075 27.4695 156.969 27.9233 156.969 28.4134V29.532C156.969 30.1882 157.084 30.7464 157.314 31.2067C157.548 31.6669 157.874 32.0185 158.292 32.2614C158.71 32.5 159.198 32.6193 159.756 32.6193C160.118 32.6193 160.448 32.5682 160.747 32.4659C161.045 32.3594 161.303 32.2017 161.52 31.9929C161.737 31.7841 161.904 31.5263 162.019 31.2195L163.828 31.5455C163.683 32.0781 163.423 32.5447 163.048 32.9453C162.677 33.3416 162.21 33.6506 161.648 33.8722C161.09 34.0895 160.453 34.1982 159.737 34.1982ZM169.753 24.1818V25.7159H164.39V24.1818H169.753ZM165.828 21.8295H167.739V31.1172C167.739 31.4879 167.795 31.767 167.905 31.9545C168.016 32.1378 168.159 32.2635 168.334 32.3317C168.513 32.3956 168.706 32.4276 168.915 32.4276C169.069 32.4276 169.203 32.4169 169.318 32.3956C169.433 32.3743 169.523 32.3572 169.586 32.3445L169.932 33.9233C169.821 33.9659 169.663 34.0085 169.459 34.0511C169.254 34.098 168.998 34.1236 168.692 34.1278C168.189 34.1364 167.72 34.0469 167.285 33.8594C166.851 33.6719 166.499 33.3821 166.231 32.9901C165.962 32.598 165.828 32.1058 165.828 31.5135V21.8295ZM182.188 26.5788L180.456 26.8857C180.383 26.6641 180.268 26.4531 180.11 26.2528C179.957 26.0526 179.748 25.8885 179.484 25.7607C179.22 25.6328 178.889 25.5689 178.493 25.5689C177.952 25.5689 177.5 25.6903 177.138 25.9332C176.776 26.1719 176.595 26.4808 176.595 26.8601C176.595 27.1882 176.716 27.4524 176.959 27.6527C177.202 27.853 177.594 28.017 178.135 28.1449L179.695 28.5028C180.598 28.7116 181.272 29.0334 181.715 29.468C182.158 29.9027 182.38 30.4673 182.38 31.1619C182.38 31.75 182.209 32.2741 181.868 32.7344C181.531 33.1903 181.061 33.5483 180.456 33.8082C179.855 34.0682 179.158 34.1982 178.365 34.1982C177.266 34.1982 176.369 33.9638 175.674 33.495C174.98 33.022 174.554 32.3509 174.396 31.4815L176.243 31.2003C176.358 31.6818 176.595 32.0462 176.953 32.2933C177.311 32.5362 177.777 32.6577 178.353 32.6577C178.979 32.6577 179.48 32.5277 179.855 32.2678C180.23 32.0036 180.417 31.6818 180.417 31.3026C180.417 30.9957 180.302 30.7379 180.072 30.5291C179.846 30.3203 179.499 30.1626 179.03 30.0561L177.368 29.6918C176.452 29.483 175.774 29.1506 175.335 28.6946C174.901 28.2386 174.683 27.6612 174.683 26.9624C174.683 26.3828 174.845 25.8757 175.169 25.4411C175.493 25.0064 175.941 24.6676 176.512 24.4247C177.083 24.1776 177.737 24.054 178.474 24.054C179.535 24.054 180.37 24.2841 180.98 24.7443C181.589 25.2003 181.992 25.8118 182.188 26.5788ZM183.581 37.6818V24.1818H185.447V25.7734H185.607C185.718 25.5689 185.878 25.3324 186.087 25.0639C186.295 24.7955 186.585 24.5611 186.956 24.3608C187.327 24.1562 187.817 24.054 188.426 24.054C189.219 24.054 189.926 24.2543 190.548 24.6548C191.17 25.0554 191.658 25.6328 192.012 26.3871C192.37 27.1413 192.549 28.049 192.549 29.1101C192.549 30.1712 192.372 31.081 192.018 31.8395C191.665 32.5937 191.179 33.1754 190.561 33.5845C189.943 33.9893 189.238 34.1918 188.445 34.1918C187.849 34.1918 187.361 34.0916 186.981 33.8913C186.606 33.6911 186.312 33.4567 186.099 33.1882C185.886 32.9197 185.722 32.6811 185.607 32.4723H185.492V37.6818H183.581ZM185.454 29.0909C185.454 29.7812 185.554 30.3864 185.754 30.9062C185.954 31.4261 186.244 31.8331 186.624 32.1271C187.003 32.4169 187.467 32.5618 188.017 32.5618C188.588 32.5618 189.065 32.4105 189.449 32.108C189.832 31.8011 190.122 31.3857 190.318 30.8615C190.518 30.3374 190.619 29.7472 190.619 29.0909C190.619 28.4432 190.521 27.8615 190.325 27.3459C190.133 26.8303 189.843 26.4233 189.455 26.125C189.072 25.8267 188.592 25.6776 188.017 25.6776C187.463 25.6776 186.994 25.8203 186.611 26.1058C186.231 26.3913 185.944 26.7898 185.748 27.3011C185.552 27.8125 185.454 28.4091 185.454 29.0909ZM198.022 34.1982C197.054 34.1982 196.221 33.9915 195.523 33.5781C194.828 33.1605 194.291 32.5746 193.912 31.8203C193.537 31.0618 193.349 30.1733 193.349 29.1548C193.349 28.1491 193.537 27.2628 193.912 26.4957C194.291 25.7287 194.819 25.13 195.497 24.6996C196.179 24.2692 196.976 24.054 197.888 24.054C198.442 24.054 198.978 24.1456 199.498 24.3288C200.018 24.5121 200.485 24.7997 200.898 25.1918C201.312 25.5838 201.638 26.093 201.876 26.7195C202.115 27.3416 202.234 28.098 202.234 28.9886V29.6662H194.429V28.2344H200.361C200.361 27.7315 200.259 27.2862 200.054 26.8984C199.85 26.5064 199.562 26.1974 199.192 25.9716C198.825 25.7457 198.395 25.6328 197.9 25.6328C197.363 25.6328 196.895 25.7649 196.494 26.0291C196.098 26.2891 195.791 26.63 195.574 27.0518C195.361 27.4695 195.254 27.9233 195.254 28.4134V29.532C195.254 30.1882 195.369 30.7464 195.599 31.2067C195.834 31.6669 196.16 32.0185 196.577 32.2614C196.995 32.5 197.483 32.6193 198.041 32.6193C198.403 32.6193 198.733 32.5682 199.032 32.4659C199.33 32.3594 199.588 32.2017 199.805 31.9929C200.023 31.7841 200.189 31.5263 200.304 31.2195L202.113 31.5455C201.968 32.0781 201.708 32.5447 201.333 32.9453C200.962 33.3416 200.496 33.6506 199.933 33.8722C199.375 34.0895 198.738 34.1982 198.022 34.1982ZM207.686 34.1982C206.719 34.1982 205.886 33.9915 205.187 33.5781C204.492 33.1605 203.955 32.5746 203.576 31.8203C203.201 31.0618 203.014 30.1733 203.014 29.1548C203.014 28.1491 203.201 27.2628 203.576 26.4957C203.955 25.7287 204.484 25.13 205.161 24.6996C205.843 24.2692 206.64 24.054 207.552 24.054C208.106 24.054 208.643 24.1456 209.163 24.3288C209.683 24.5121 210.149 24.7997 210.563 25.1918C210.976 25.5838 211.302 26.093 211.541 26.7195C211.779 27.3416 211.899 28.098 211.899 28.9886V29.6662H204.094V28.2344H210.026C210.026 27.7315 209.923 27.2862 209.719 26.8984C209.514 26.5064 209.227 26.1974 208.856 25.9716C208.49 25.7457 208.059 25.6328 207.565 25.6328C207.028 25.6328 206.559 25.7649 206.159 26.0291C205.762 26.2891 205.455 26.63 205.238 27.0518C205.025 27.4695 204.919 27.9233 204.919 28.4134V29.532C204.919 30.1882 205.034 30.7464 205.264 31.2067C205.498 31.6669 205.824 32.0185 206.242 32.2614C206.659 32.5 207.147 32.6193 207.705 32.6193C208.068 32.6193 208.398 32.5682 208.696 32.4659C208.994 32.3594 209.252 32.2017 209.47 31.9929C209.687 31.7841 209.853 31.5263 209.968 31.2195L211.777 31.5455C211.632 32.0781 211.372 32.5447 210.997 32.9453C210.627 33.3416 210.16 33.6506 209.597 33.8722C209.039 34.0895 208.402 34.1982 207.686 34.1982ZM216.795 34.1918C216.002 34.1918 215.295 33.9893 214.672 33.5845C214.055 33.1754 213.569 32.5937 213.215 31.8395C212.866 31.081 212.691 30.1712 212.691 29.1101C212.691 28.049 212.868 27.1413 213.221 26.3871C213.579 25.6328 214.069 25.0554 214.692 24.6548C215.314 24.2543 216.019 24.054 216.807 24.054C217.417 24.054 217.907 24.1562 218.278 24.3608C218.653 24.5611 218.942 24.7955 219.147 25.0639C219.356 25.3324 219.518 25.5689 219.633 25.7734H219.748V20.9091H221.659V34H219.792V32.4723H219.633C219.518 32.6811 219.351 32.9197 219.134 33.1882C218.921 33.4567 218.627 33.6911 218.252 33.8913C217.877 34.0916 217.391 34.1918 216.795 34.1918ZM217.216 32.5618C217.766 32.5618 218.231 32.4169 218.61 32.1271C218.993 31.8331 219.283 31.4261 219.479 30.9062C219.68 30.3864 219.78 29.7812 219.78 29.0909C219.78 28.4091 219.682 27.8125 219.486 27.3011C219.29 26.7898 219.002 26.3913 218.623 26.1058C218.243 25.8203 217.775 25.6776 217.216 25.6776C216.641 25.6776 216.162 25.8267 215.778 26.125C215.395 26.4233 215.105 26.8303 214.909 27.3459C214.717 27.8615 214.621 28.4432 214.621 29.0909C214.621 29.7472 214.719 30.3374 214.915 30.8615C215.111 31.3857 215.401 31.8011 215.785 32.108C216.172 32.4105 216.65 32.5618 217.216 32.5618ZM230.844 26.5788L229.112 26.8857C229.039 26.6641 228.924 26.4531 228.767 26.2528C228.613 26.0526 228.404 25.8885 228.14 25.7607C227.876 25.6328 227.546 25.5689 227.149 25.5689C226.608 25.5689 226.156 25.6903 225.794 25.9332C225.432 26.1719 225.251 26.4808 225.251 26.8601C225.251 27.1882 225.372 27.4524 225.615 27.6527C225.858 27.853 226.25 28.017 226.791 28.1449L228.351 28.5028C229.255 28.7116 229.928 29.0334 230.371 29.468C230.814 29.9027 231.036 30.4673 231.036 31.1619C231.036 31.75 230.865 32.2741 230.524 32.7344C230.188 33.1903 229.717 33.5483 229.112 33.8082C228.511 34.0682 227.814 34.1982 227.022 34.1982C225.922 34.1982 225.025 33.9638 224.331 33.495C223.636 33.022 223.21 32.3509 223.052 31.4815L224.899 31.2003C225.014 31.6818 225.251 32.0462 225.609 32.2933C225.967 32.5362 226.433 32.6577 227.009 32.6577C227.635 32.6577 228.136 32.5277 228.511 32.2678C228.886 32.0036 229.073 31.6818 229.073 31.3026C229.073 30.9957 228.958 30.7379 228.728 30.5291C228.502 30.3203 228.155 30.1626 227.686 30.0561L226.024 29.6918C225.108 29.483 224.431 29.1506 223.992 28.6946C223.557 28.2386 223.34 27.6612 223.34 26.9624C223.34 26.3828 223.502 25.8757 223.826 25.4411C224.149 25.0064 224.597 24.6676 225.168 24.4247C225.739 24.1776 226.393 24.054 227.13 24.054C228.191 24.054 229.027 24.2841 229.636 24.7443C230.245 25.2003 230.648 25.8118 230.844 26.5788ZM234.647 20.9091L234.481 30.2351H232.71L232.544 20.9091H234.647ZM233.599 34.1214C233.245 34.1214 232.942 33.9979 232.691 33.7507C232.44 33.4993 232.316 33.1967 232.32 32.843C232.316 32.4936 232.44 32.1953 232.691 31.9482C232.942 31.6967 233.245 31.571 233.599 31.571C233.944 31.571 234.242 31.6967 234.494 31.9482C234.745 32.1953 234.873 32.4936 234.877 32.843C234.873 33.0774 234.811 33.2926 234.692 33.4886C234.577 33.6804 234.423 33.8338 234.231 33.9489C234.04 34.0639 233.829 34.1214 233.599 34.1214Z" fill="white"/>
<path fill-rule="evenodd" clip-rule="evenodd" d="M339.419 20.5493L338.27 19.3999L331.909 25.7083L325.512 19.3999L324.401 20.5112L330.793 26.815L324.4 33.1549L325.549 34.1893L331.919 27.9255L338.309 34.2274L339.381 33.078H339.382L333.04 26.8233L339.419 20.5493Z" fill="#BDBCC0"/>
<path d="M26.0994 55.5H24.7784C24.7003 55.12 24.5636 54.7862 24.3683 54.4986C24.1765 54.2109 23.9421 53.9695 23.6651 53.7741C23.3917 53.5753 23.0881 53.4261 22.7543 53.3267C22.4205 53.2273 22.0724 53.1776 21.7102 53.1776C21.0497 53.1776 20.4513 53.3445 19.9151 53.6783C19.3825 54.0121 18.9581 54.5039 18.642 55.1538C18.3295 55.8036 18.1733 56.6009 18.1733 57.5455C18.1733 58.4901 18.3295 59.2873 18.642 59.9371C18.9581 60.587 19.3825 61.0788 19.9151 61.4126C20.4513 61.7464 21.0497 61.9134 21.7102 61.9134C22.0724 61.9134 22.4205 61.8636 22.7543 61.7642C23.0881 61.6648 23.3917 61.5174 23.6651 61.3221C23.9421 61.1232 24.1765 60.88 24.3683 60.5923C24.5636 60.3011 24.7003 59.9673 24.7784 59.5909H26.0994C26 60.1484 25.8189 60.6474 25.5561 61.0877C25.2933 61.5281 24.9666 61.9027 24.576 62.2116C24.1854 62.517 23.7468 62.7496 23.2603 62.9094C22.7773 63.0692 22.2607 63.1491 21.7102 63.1491C20.7798 63.1491 19.9524 62.9219 19.228 62.4673C18.5036 62.0128 17.9336 61.3665 17.5181 60.5284C17.1026 59.6903 16.8949 58.696 16.8949 57.5455C16.8949 56.3949 17.1026 55.4006 17.5181 54.5625C17.9336 53.7244 18.5036 53.0781 19.228 52.6236C19.9524 52.169 20.7798 51.9418 21.7102 51.9418C22.2607 51.9418 22.7773 52.0217 23.2603 52.1815C23.7468 52.3413 24.1854 52.5756 24.576 52.8846C24.9666 53.19 25.2933 53.5629 25.5561 54.0032C25.8189 54.44 26 54.9389 26.0994 55.5ZM29.2208 58.0781V63H27.9637V52.0909H29.2208V56.0966H29.3273C29.5191 55.674 29.8067 55.3384 30.1902 55.0898C30.5773 54.8377 31.0922 54.7116 31.735 54.7116C32.2925 54.7116 32.7808 54.8235 33.1998 55.0472C33.6188 55.2674 33.9438 55.6065 34.1746 56.0646C34.409 56.5192 34.5262 57.098 34.5262 57.8011V63H33.2691V57.8864C33.2691 57.2365 33.1004 56.734 32.763 56.3789C32.4292 56.0202 31.9658 55.8409 31.3727 55.8409C30.9608 55.8409 30.5915 55.9279 30.2648 56.1019C29.9416 56.2759 29.686 56.5298 29.4977 56.8636C29.3131 57.1974 29.2208 57.6023 29.2208 58.0781ZM40.1564 63.1705C39.368 63.1705 38.688 62.9964 38.1162 62.6484C37.548 62.2969 37.1095 61.8068 36.8005 61.1783C36.4951 60.5462 36.3424 59.8111 36.3424 58.973C36.3424 58.1349 36.4951 57.3963 36.8005 56.7571C37.1095 56.1143 37.5392 55.6136 38.0896 55.255C38.6436 54.8928 39.2899 54.7116 40.0285 54.7116C40.4547 54.7116 40.8755 54.7827 41.2909 54.9247C41.7064 55.0668 42.0846 55.2976 42.4255 55.6172C42.7664 55.9332 43.0381 56.3523 43.2405 56.8743C43.4429 57.3963 43.5441 58.0391 43.5441 58.8026V59.3352H37.2373V58.2486H42.2657C42.2657 57.7869 42.1734 57.375 41.9887 57.0128C41.8076 56.6506 41.5484 56.3647 41.211 56.1552C40.8772 55.9457 40.4831 55.8409 40.0285 55.8409C39.5278 55.8409 39.0946 55.9652 38.7288 56.2138C38.3666 56.4588 38.0878 56.7784 37.8925 57.1726C37.6972 57.5668 37.5995 57.9893 37.5995 58.4403V59.1648C37.5995 59.7827 37.7061 60.3065 37.9191 60.7362C38.1358 61.1623 38.4358 61.4872 38.8194 61.7109C39.2029 61.9311 39.6485 62.0412 40.1564 62.0412C40.4866 62.0412 40.7849 61.995 41.0512 61.9027C41.3211 61.8068 41.5537 61.6648 41.749 61.4766C41.9444 61.2848 42.0953 61.0469 42.2018 60.7628L43.4163 61.1037C43.2885 61.5156 43.0736 61.8778 42.7718 62.1903C42.4699 62.4993 42.0971 62.7408 41.6532 62.9148C41.2093 63.0852 40.7103 63.1705 40.1564 63.1705ZM48.6803 63.1705C47.9132 63.1705 47.2527 62.9893 46.6988 62.6271C46.1448 62.2649 45.7186 61.766 45.4203 61.1303C45.1221 60.4947 44.9729 59.7685 44.9729 58.9517C44.9729 58.1207 45.1256 57.3874 45.431 56.7518C45.74 56.1126 46.1696 55.6136 46.7201 55.255C47.274 54.8928 47.9203 54.7116 48.659 54.7116C49.2343 54.7116 49.7527 54.8182 50.2144 55.0312C50.676 55.2443 51.0542 55.5426 51.349 55.9261C51.6437 56.3097 51.8266 56.7571 51.8976 57.2685H50.6405C50.5446 56.8956 50.3316 56.5653 50.0013 56.2777C49.6746 55.9865 49.2343 55.8409 48.6803 55.8409C48.1902 55.8409 47.7605 55.9687 47.3912 56.2244C47.0255 56.4766 46.7396 56.8335 46.5336 57.2951C46.3312 57.7532 46.23 58.2912 46.23 58.9091C46.23 59.5412 46.3294 60.0916 46.5283 60.5604C46.7307 61.0291 47.0148 61.3931 47.3806 61.6523C47.7499 61.9116 48.1831 62.0412 48.6803 62.0412C49.007 62.0412 49.3035 61.9844 49.5699 61.8707C49.8362 61.7571 50.0617 61.5938 50.2463 61.3807C50.431 61.1676 50.5624 60.9119 50.6405 60.6136H51.8976C51.8266 61.0966 51.6508 61.5316 51.3703 61.9187C51.0933 62.3022 50.7257 62.6076 50.2677 62.8349C49.8131 63.0586 49.284 63.1705 48.6803 63.1705ZM54.8072 60.017L54.7859 58.4616H55.0416L58.6211 54.8182H60.1765L56.3626 58.6747H56.2561L54.8072 60.017ZM53.6353 63V52.0909H54.8924V63H53.6353ZM58.8342 63L55.6382 58.9517L56.5331 58.0781L60.4322 63H58.8342ZM67.0704 58.0781V63H65.8133V52.0909H67.0704V56.0966H67.1769C67.3687 55.674 67.6563 55.3384 68.0398 55.0898C68.4269 54.8377 68.9418 54.7116 69.5846 54.7116C70.1421 54.7116 70.6304 54.8235 71.0494 55.0472C71.4684 55.2674 71.7934 55.6065 72.0242 56.0646C72.2586 56.5192 72.3758 57.098 72.3758 57.8011V63H71.1187V57.8864C71.1187 57.2365 70.95 56.734 70.6126 56.3789C70.2788 56.0202 69.8154 55.8409 69.2224 55.8409C68.8104 55.8409 68.4411 55.9279 68.1144 56.1019C67.7912 56.2759 67.5356 56.5298 67.3474 56.8636C67.1627 57.1974 67.0704 57.6023 67.0704 58.0781ZM77.8994 63.1705C77.1608 63.1705 76.5127 62.9947 75.9552 62.6431C75.4012 62.2915 74.968 61.7997 74.6555 61.1676C74.3465 60.5355 74.192 59.7969 74.192 58.9517C74.192 58.0994 74.3465 57.3555 74.6555 56.7198C74.968 56.0842 75.4012 55.5906 75.9552 55.239C76.5127 54.8874 77.1608 54.7116 77.8994 54.7116C78.6381 54.7116 79.2844 54.8874 79.8384 55.239C80.3959 55.5906 80.8291 56.0842 81.1381 56.7198C81.4506 57.3555 81.6068 58.0994 81.6068 58.9517C81.6068 59.7969 81.4506 60.5355 81.1381 61.1676C80.8291 61.7997 80.3959 62.2915 79.8384 62.6431C79.2844 62.9947 78.6381 63.1705 77.8994 63.1705ZM77.8994 62.0412C78.4605 62.0412 78.9222 61.8974 79.2844 61.6097C79.6466 61.3221 79.9147 60.9439 80.0887 60.4751C80.2627 60.0064 80.3497 59.4986 80.3497 58.9517C80.3497 58.4048 80.2627 57.8952 80.0887 57.4229C79.9147 56.9506 79.6466 56.5689 79.2844 56.2777C78.9222 55.9865 78.4605 55.8409 77.8994 55.8409C77.3384 55.8409 76.8767 55.9865 76.5145 56.2777C76.1523 56.5689 75.8842 56.9506 75.7102 57.4229C75.5361 57.8952 75.4491 58.4048 75.4491 58.9517C75.4491 59.4986 75.5361 60.0064 75.7102 60.4751C75.8842 60.9439 76.1523 61.3221 76.5145 61.6097C76.8767 61.8974 77.3384 62.0412 77.8994 62.0412ZM85.0011 63L82.5082 54.8182H83.8293L85.5977 61.0824H85.683L87.4301 54.8182H88.7724L90.4983 61.0611H90.5835L92.352 54.8182H93.673L91.1801 63H89.9443L88.1545 56.7145H88.0267L86.2369 63H85.0011ZM100.163 66.0682C99.9503 66.0682 99.7603 66.0504 99.5934 66.0149C99.4265 65.983 99.3111 65.951 99.2472 65.919L99.5668 64.8111C99.8722 64.8892 100.142 64.9176 100.376 64.8963C100.611 64.875 100.819 64.7702 101 64.582C101.184 64.3974 101.353 64.0973 101.506 63.6818L101.74 63.0426L98.7145 54.8182H100.078L102.337 61.3381H102.422L104.68 54.8182H106.044L102.571 64.1932C102.415 64.6158 102.221 64.9656 101.99 65.2425C101.76 65.5231 101.491 65.7308 101.186 65.8658C100.884 66.0007 100.543 66.0682 100.163 66.0682ZM110.634 63.1705C109.896 63.1705 109.247 62.9947 108.69 62.6431C108.136 62.2915 107.703 61.7997 107.39 61.1676C107.081 60.5355 106.927 59.7969 106.927 58.9517C106.927 58.0994 107.081 57.3555 107.39 56.7198C107.703 56.0842 108.136 55.5906 108.69 55.239C109.247 54.8874 109.896 54.7116 110.634 54.7116C111.373 54.7116 112.019 54.8874 112.573 55.239C113.131 55.5906 113.564 56.0842 113.873 56.7198C114.185 57.3555 114.342 58.0994 114.342 58.9517C114.342 59.7969 114.185 60.5355 113.873 61.1676C113.564 61.7997 113.131 62.2915 112.573 62.6431C112.019 62.9947 111.373 63.1705 110.634 63.1705ZM110.634 62.0412C111.195 62.0412 111.657 61.8974 112.019 61.6097C112.381 61.3221 112.649 60.9439 112.823 60.4751C112.997 60.0064 113.084 59.4986 113.084 58.9517C113.084 58.4048 112.997 57.8952 112.823 57.4229C112.649 56.9506 112.381 56.5689 112.019 56.2777C111.657 55.9865 111.195 55.8409 110.634 55.8409C110.073 55.8409 109.611 55.9865 109.249 56.2777C108.887 56.5689 108.619 56.9506 108.445 57.4229C108.271 57.8952 108.184 58.4048 108.184 58.9517C108.184 59.4986 108.271 60.0064 108.445 60.4751C108.619 60.9439 108.887 61.3221 109.249 61.6097C109.611 61.8974 110.073 62.0412 110.634 62.0412ZM121.317 59.6548V54.8182H122.574V63H121.317V61.6151H121.232C121.04 62.0305 120.741 62.3839 120.337 62.6751C119.932 62.9627 119.42 63.1065 118.803 63.1065C118.291 63.1065 117.837 62.9947 117.439 62.771C117.041 62.5437 116.729 62.2028 116.501 61.7482C116.274 61.2901 116.161 60.7131 116.161 60.017V54.8182H117.418V59.9318C117.418 60.5284 117.585 61.0043 117.918 61.3594C118.256 61.7145 118.685 61.892 119.207 61.892C119.52 61.892 119.838 61.8121 120.161 61.6523C120.488 61.4925 120.761 61.2475 120.981 60.9173C121.205 60.587 121.317 60.1662 121.317 59.6548ZM124.776 63V54.8182H125.991V56.054H126.076C126.225 55.6491 126.495 55.3207 126.886 55.0685C127.276 54.8164 127.717 54.6903 128.207 54.6903C128.299 54.6903 128.414 54.6921 128.553 54.6957C128.691 54.6992 128.796 54.7045 128.867 54.7116V55.9901C128.825 55.9794 128.727 55.9634 128.574 55.9421C128.425 55.9173 128.267 55.9048 128.1 55.9048C127.702 55.9048 127.347 55.9883 127.035 56.1552C126.726 56.3185 126.481 56.5458 126.3 56.837C126.122 57.1246 126.033 57.4531 126.033 57.8224V63H124.776ZM134.376 63V54.8182H135.633V63H134.376ZM135.015 53.4545C134.77 53.4545 134.559 53.3711 134.381 53.2042C134.207 53.0373 134.12 52.8366 134.12 52.6023C134.12 52.3679 134.207 52.1673 134.381 52.0004C134.559 51.8335 134.77 51.75 135.015 51.75C135.26 51.75 135.47 51.8335 135.644 52.0004C135.821 52.1673 135.91 52.3679 135.91 52.6023C135.91 52.8366 135.821 53.0373 135.644 53.2042C135.47 53.3711 135.26 53.4545 135.015 53.4545ZM139.093 58.0781V63H137.836V54.8182H139.05V56.0966H139.157C139.349 55.6811 139.64 55.3473 140.03 55.0952C140.421 54.8395 140.925 54.7116 141.543 54.7116C142.097 54.7116 142.582 54.8253 142.997 55.0526C143.413 55.2763 143.736 55.6172 143.967 56.0753C144.198 56.5298 144.313 57.1051 144.313 57.8011V63H143.056V57.8864C143.056 57.2436 142.889 56.7429 142.555 56.3842C142.221 56.022 141.763 55.8409 141.181 55.8409C140.78 55.8409 140.421 55.9279 140.105 56.1019C139.792 56.2759 139.546 56.5298 139.364 56.8636C139.183 57.1974 139.093 57.6023 139.093 58.0781ZM150.068 54.8182V55.8835H145.828V54.8182H150.068ZM147.064 52.858H148.321V60.6562C148.321 61.0114 148.373 61.2777 148.476 61.4553C148.582 61.6293 148.717 61.7464 148.881 61.8068C149.047 61.8636 149.223 61.892 149.408 61.892C149.546 61.892 149.66 61.8849 149.749 61.8707C149.838 61.853 149.909 61.8388 149.962 61.8281L150.218 62.9574C150.132 62.9893 150.013 63.0213 149.861 63.0533C149.708 63.0888 149.514 63.1065 149.28 63.1065C148.925 63.1065 148.577 63.0302 148.236 62.8775C147.899 62.7248 147.618 62.4922 147.394 62.1797C147.174 61.8672 147.064 61.473 147.064 60.9972V52.858ZM155.202 63.1705C154.414 63.1705 153.733 62.9964 153.162 62.6484C152.594 62.2969 152.155 61.8068 151.846 61.1783C151.541 60.5462 151.388 59.8111 151.388 58.973C151.388 58.1349 151.541 57.3963 151.846 56.7571C152.155 56.1143 152.585 55.6136 153.135 55.255C153.689 54.8928 154.335 54.7116 155.074 54.7116C155.5 54.7116 155.921 54.7827 156.336 54.9247C156.752 55.0668 157.13 55.2976 157.471 55.6172C157.812 55.9332 158.084 56.3523 158.286 56.8743C158.488 57.3963 158.59 58.0391 158.59 58.8026V59.3352H152.283V58.2486H157.311C157.311 57.7869 157.219 57.375 157.034 57.0128C156.853 56.6506 156.594 56.3647 156.257 56.1552C155.923 55.9457 155.529 55.8409 155.074 55.8409C154.573 55.8409 154.14 55.9652 153.774 56.2138C153.412 56.4588 153.133 56.7784 152.938 57.1726C152.743 57.5668 152.645 57.9893 152.645 58.4403V59.1648C152.645 59.7827 152.752 60.3065 152.965 60.7362C153.181 61.1623 153.481 61.4872 153.865 61.7109C154.248 61.9311 154.694 62.0412 155.202 62.0412C155.532 62.0412 155.83 61.995 156.097 61.9027C156.367 61.8068 156.599 61.6648 156.795 61.4766C156.99 61.2848 157.141 61.0469 157.247 60.7628L158.462 61.1037C158.334 61.5156 158.119 61.8778 157.817 62.1903C157.515 62.4993 157.143 62.7408 156.699 62.9148C156.255 63.0852 155.756 63.1705 155.202 63.1705ZM160.402 63V54.8182H161.616V56.054H161.702C161.851 55.6491 162.121 55.3207 162.511 55.0685C162.902 54.8164 163.342 54.6903 163.832 54.6903C163.925 54.6903 164.04 54.6921 164.179 54.6957C164.317 54.6992 164.422 54.7045 164.493 54.7116V55.9901C164.45 55.9794 164.353 55.9634 164.2 55.9421C164.051 55.9173 163.893 55.9048 163.726 55.9048C163.328 55.9048 162.973 55.9883 162.66 56.1552C162.352 56.3185 162.106 56.5458 161.925 56.837C161.748 57.1246 161.659 57.4531 161.659 57.8224V63H160.402ZM167.14 58.0781V63H165.883V54.8182H167.097V56.0966H167.204C167.396 55.6811 167.687 55.3473 168.078 55.0952C168.468 54.8395 168.972 54.7116 169.59 54.7116C170.144 54.7116 170.629 54.8253 171.045 55.0526C171.46 55.2763 171.783 55.6172 172.014 56.0753C172.245 56.5298 172.36 57.1051 172.36 57.8011V63H171.103V57.8864C171.103 57.2436 170.936 56.7429 170.602 56.3842C170.269 56.022 169.811 55.8409 169.228 55.8409C168.827 55.8409 168.468 55.9279 168.152 56.1019C167.84 56.2759 167.593 56.5298 167.412 56.8636C167.231 57.1974 167.14 57.6023 167.14 58.0781ZM177.988 63.1705C177.199 63.1705 176.519 62.9964 175.948 62.6484C175.379 62.2969 174.941 61.8068 174.632 61.1783C174.327 60.5462 174.174 59.8111 174.174 58.973C174.174 58.1349 174.327 57.3963 174.632 56.7571C174.941 56.1143 175.371 55.6136 175.921 55.255C176.475 54.8928 177.121 54.7116 177.86 54.7116C178.286 54.7116 178.707 54.7827 179.122 54.9247C179.538 55.0668 179.916 55.2976 180.257 55.6172C180.598 55.9332 180.87 56.3523 181.072 56.8743C181.274 57.3963 181.376 58.0391 181.376 58.8026V59.3352H175.069V58.2486H180.097C180.097 57.7869 180.005 57.375 179.82 57.0128C179.639 56.6506 179.38 56.3647 179.042 56.1552C178.709 55.9457 178.315 55.8409 177.86 55.8409C177.359 55.8409 176.926 55.9652 176.56 56.2138C176.198 56.4588 175.919 56.7784 175.724 57.1726C175.529 57.5668 175.431 57.9893 175.431 58.4403V59.1648C175.431 59.7827 175.538 60.3065 175.751 60.7362C175.967 61.1623 176.267 61.4872 176.651 61.7109C177.034 61.9311 177.48 62.0412 177.988 62.0412C178.318 62.0412 178.616 61.995 178.883 61.9027C179.153 61.8068 179.385 61.6648 179.58 61.4766C179.776 61.2848 179.927 61.0469 180.033 60.7628L181.248 61.1037C181.12 61.5156 180.905 61.8778 180.603 62.1903C180.301 62.4993 179.928 62.7408 179.485 62.9148C179.041 63.0852 178.542 63.1705 177.988 63.1705ZM186.746 54.8182V55.8835H182.506V54.8182H186.746ZM183.742 52.858H184.999V60.6562C184.999 61.0114 185.05 61.2777 185.153 61.4553C185.26 61.6293 185.395 61.7464 185.558 61.8068C185.725 61.8636 185.901 61.892 186.086 61.892C186.224 61.892 186.338 61.8849 186.427 61.8707C186.515 61.853 186.586 61.8388 186.64 61.8281L186.895 62.9574C186.81 62.9893 186.691 63.0213 186.538 63.0533C186.386 63.0888 186.192 63.1065 185.958 63.1065C185.603 63.1065 185.255 63.0302 184.914 62.8775C184.576 62.7248 184.296 62.4922 184.072 62.1797C183.852 61.8672 183.742 61.473 183.742 60.9972V52.858ZM194.51 63L192.017 54.8182H193.338L195.106 61.0824H195.191L196.939 54.8182H198.281L200.007 61.0611H200.092L201.86 54.8182H203.181L200.689 63H199.453L197.663 56.7145H197.535L195.745 63H194.51ZM207.789 63.1705C207.05 63.1705 206.402 62.9947 205.845 62.6431C205.291 62.2915 204.857 61.7997 204.545 61.1676C204.236 60.5355 204.081 59.7969 204.081 58.9517C204.081 58.0994 204.236 57.3555 204.545 56.7198C204.857 56.0842 205.291 55.5906 205.845 55.239C206.402 54.8874 207.05 54.7116 207.789 54.7116C208.528 54.7116 209.174 54.8874 209.728 55.239C210.285 55.5906 210.719 56.0842 211.028 56.7198C211.34 57.3555 211.496 58.0994 211.496 58.9517C211.496 59.7969 211.34 60.5355 211.028 61.1676C210.719 61.7997 210.285 62.2915 209.728 62.6431C209.174 62.9947 208.528 63.1705 207.789 63.1705ZM207.789 62.0412C208.35 62.0412 208.812 61.8974 209.174 61.6097C209.536 61.3221 209.804 60.9439 209.978 60.4751C210.152 60.0064 210.239 59.4986 210.239 58.9517C210.239 58.4048 210.152 57.8952 209.978 57.4229C209.804 56.9506 209.536 56.5689 209.174 56.2777C208.812 55.9865 208.35 55.8409 207.789 55.8409C207.228 55.8409 206.766 55.9865 206.404 56.2777C206.042 56.5689 205.774 56.9506 205.6 57.4229C205.426 57.8952 205.339 58.4048 205.339 58.9517C205.339 59.4986 205.426 60.0064 205.6 60.4751C205.774 60.9439 206.042 61.3221 206.404 61.6097C206.766 61.8974 207.228 62.0412 207.789 62.0412ZM213.315 63V54.8182H214.53V56.054H214.615C214.764 55.6491 215.034 55.3207 215.425 55.0685C215.815 54.8164 216.256 54.6903 216.746 54.6903C216.838 54.6903 216.953 54.6921 217.092 54.6957C217.23 54.6992 217.335 54.7045 217.406 54.7116V55.9901C217.364 55.9794 217.266 55.9634 217.113 55.9421C216.964 55.9173 216.806 55.9048 216.639 55.9048C216.241 55.9048 215.886 55.9883 215.574 56.1552C215.265 56.3185 215.02 56.5458 214.839 56.837C214.661 57.1246 214.572 57.4531 214.572 57.8224V63H213.315ZM219.968 60.017L219.947 58.4616H220.203L223.782 54.8182H225.337L221.524 58.6747H221.417L219.968 60.017ZM218.796 63V52.0909H220.053V63H218.796ZM223.995 63L220.799 58.9517L221.694 58.0781L225.593 63H223.995ZM232.651 56.6506L231.522 56.9702C231.451 56.782 231.346 56.5991 231.207 56.4215C231.072 56.2404 230.888 56.0913 230.653 55.9741C230.419 55.8569 230.119 55.7983 229.753 55.7983C229.252 55.7983 228.835 55.9137 228.501 56.1445C228.171 56.3718 228.006 56.6612 228.006 57.0128C228.006 57.3253 228.12 57.5721 228.347 57.7532C228.574 57.9343 228.929 58.0852 229.412 58.206L230.627 58.5043C231.358 58.6818 231.903 58.9535 232.262 59.3192C232.621 59.6815 232.8 60.1484 232.8 60.7202C232.8 61.1889 232.665 61.608 232.395 61.9773C232.129 62.3466 231.756 62.6378 231.277 62.8509C230.797 63.0639 230.24 63.1705 229.604 63.1705C228.77 63.1705 228.079 62.9893 227.532 62.6271C226.985 62.2649 226.639 61.7358 226.493 61.0398L227.686 60.7415C227.8 61.1818 228.015 61.5121 228.331 61.7322C228.651 61.9524 229.068 62.0625 229.583 62.0625C230.169 62.0625 230.634 61.9382 230.978 61.6896C231.326 61.4375 231.5 61.1357 231.5 60.7841C231.5 60.5 231.401 60.2621 231.202 60.0703C231.003 59.875 230.698 59.7294 230.286 59.6335L228.922 59.3139C228.173 59.1364 227.622 58.8612 227.271 58.4883C226.923 58.1119 226.749 57.6413 226.749 57.0767C226.749 56.6151 226.879 56.2067 227.138 55.8516C227.401 55.4964 227.757 55.2177 228.208 55.0153C228.663 54.8129 229.178 54.7116 229.753 54.7116C230.563 54.7116 231.198 54.8892 231.66 55.2443C232.125 55.5994 232.456 56.0682 232.651 56.6506ZM235.509 63.0852C235.246 63.0852 235.02 62.9911 234.832 62.8029C234.644 62.6147 234.55 62.3892 234.55 62.1264C234.55 61.8636 234.644 61.6381 234.832 61.4499C235.02 61.2617 235.246 61.1676 235.509 61.1676C235.771 61.1676 235.997 61.2617 236.185 61.4499C236.373 61.6381 236.467 61.8636 236.467 62.1264C236.467 62.3004 236.423 62.4602 236.334 62.6058C236.249 62.7514 236.134 62.8686 235.988 62.9574C235.846 63.0426 235.686 63.0852 235.509 63.0852ZM250.37 55.5C250.253 55.1413 250.098 54.82 249.906 54.5359C249.718 54.2482 249.493 54.0032 249.23 53.8008C248.971 53.5984 248.676 53.4439 248.346 53.3374C248.015 53.2308 247.653 53.1776 247.259 53.1776C246.613 53.1776 246.025 53.3445 245.496 53.6783C244.967 54.0121 244.546 54.5039 244.233 55.1538C243.921 55.8036 243.765 56.6009 243.765 57.5455C243.765 58.4901 243.923 59.2873 244.239 59.9371C244.555 60.587 244.983 61.0788 245.523 61.4126C246.062 61.7464 246.67 61.9134 247.344 61.9134C247.969 61.9134 248.52 61.7802 248.996 61.5138C249.475 61.244 249.848 60.864 250.114 60.3739C250.384 59.8803 250.519 59.2997 250.519 58.6321L250.924 58.7173H247.643V57.5455H251.797V58.7173C251.797 59.6158 251.606 60.397 251.222 61.0611C250.842 61.7251 250.317 62.2401 249.645 62.6058C248.978 62.968 248.211 63.1491 247.344 63.1491C246.378 63.1491 245.53 62.9219 244.798 62.4673C244.07 62.0128 243.502 61.3665 243.094 60.5284C242.689 59.6903 242.486 58.696 242.486 57.5455C242.486 56.6825 242.602 55.9066 242.833 55.2177C243.067 54.5252 243.397 53.9357 243.823 53.4492C244.249 52.9627 244.754 52.5898 245.336 52.3306C245.918 52.0714 246.559 51.9418 247.259 51.9418C247.834 51.9418 248.371 52.0288 248.868 52.2028C249.368 52.3732 249.814 52.6165 250.205 52.9325C250.599 53.245 250.927 53.6197 251.19 54.0565C251.453 54.4897 251.634 54.9709 251.733 55.5H250.37ZM257.22 63.1705C256.431 63.1705 255.751 62.9964 255.18 62.6484C254.612 62.2969 254.173 61.8068 253.864 61.1783C253.559 60.5462 253.406 59.8111 253.406 58.973C253.406 58.1349 253.559 57.3963 253.864 56.7571C254.173 56.1143 254.603 55.6136 255.153 55.255C255.707 54.8928 256.353 54.7116 257.092 54.7116C257.518 54.7116 257.939 54.7827 258.354 54.9247C258.77 55.0668 259.148 55.2976 259.489 55.6172C259.83 55.9332 260.102 56.3523 260.304 56.8743C260.506 57.3963 260.608 58.0391 260.608 58.8026V59.3352H254.301V58.2486H259.329C259.329 57.7869 259.237 57.375 259.052 57.0128C258.871 56.6506 258.612 56.3647 258.275 56.1552C257.941 55.9457 257.547 55.8409 257.092 55.8409C256.591 55.8409 256.158 55.9652 255.792 56.2138C255.43 56.4588 255.151 56.7784 254.956 57.1726C254.761 57.5668 254.663 57.9893 254.663 58.4403V59.1648C254.663 59.7827 254.77 60.3065 254.983 60.7362C255.199 61.1623 255.499 61.4872 255.883 61.7109C256.266 61.9311 256.712 62.0412 257.22 62.0412C257.55 62.0412 257.848 61.995 258.115 61.9027C258.385 61.8068 258.617 61.6648 258.813 61.4766C259.008 61.2848 259.159 61.0469 259.265 60.7628L260.48 61.1037C260.352 61.5156 260.137 61.8778 259.835 62.1903C259.533 62.4993 259.161 62.7408 258.717 62.9148C258.273 63.0852 257.774 63.1705 257.22 63.1705ZM265.978 54.8182V55.8835H261.738V54.8182H265.978ZM262.974 52.858H264.231V60.6562C264.231 61.0114 264.282 61.2777 264.385 61.4553C264.492 61.6293 264.627 61.7464 264.79 61.8068C264.957 61.8636 265.133 61.892 265.318 61.892C265.456 61.892 265.57 61.8849 265.659 61.8707C265.747 61.853 265.818 61.8388 265.872 61.8281L266.127 62.9574C266.042 62.9893 265.923 63.0213 265.77 63.0533C265.618 63.0888 265.424 63.1065 265.19 63.1065C264.835 63.1065 264.487 63.0302 264.146 62.8775C263.808 62.7248 263.528 62.4922 263.304 62.1797C263.084 61.8672 262.974 61.473 262.974 60.9972V52.858ZM20.7088 76.8182V77.8835H16.4688V76.8182H20.7088ZM17.7045 74.858H18.9616V82.6562C18.9616 83.0114 19.0131 83.2777 19.1161 83.4553C19.2227 83.6293 19.3576 83.7464 19.521 83.8068C19.6879 83.8636 19.8636 83.892 20.0483 83.892C20.1868 83.892 20.3004 83.8849 20.3892 83.8707C20.478 83.853 20.549 83.8388 20.6023 83.8281L20.858 84.9574C20.7727 84.9893 20.6538 85.0213 20.5011 85.0533C20.3484 85.0888 20.1548 85.1065 19.9205 85.1065C19.5653 85.1065 19.2173 85.0302 18.8764 84.8775C18.5391 84.7248 18.2585 84.4922 18.0348 84.1797C17.8146 83.8672 17.7045 83.473 17.7045 82.9972V74.858ZM23.9327 80.0781V85H22.6756V74.0909H23.9327V78.0966H24.0392C24.231 77.674 24.5186 77.3384 24.9021 77.0898C25.2892 76.8377 25.8041 76.7116 26.4469 76.7116C27.0044 76.7116 27.4927 76.8235 27.9117 77.0472C28.3308 77.2674 28.6557 77.6065 28.8865 78.0646C29.1209 78.5192 29.2381 79.098 29.2381 79.8011V85H27.981V79.8864C27.981 79.2365 27.8123 78.734 27.4749 78.3789C27.1411 78.0202 26.6777 77.8409 26.0847 77.8409C25.6727 77.8409 25.3034 77.9279 24.9767 78.1019C24.6536 78.2759 24.3979 78.5298 24.2097 78.8636C24.025 79.1974 23.9327 79.6023 23.9327 80.0781ZM34.8683 85.1705C34.0799 85.1705 33.3999 84.9964 32.8281 84.6484C32.26 84.2969 31.8214 83.8068 31.5124 83.1783C31.207 82.5462 31.0544 81.8111 31.0544 80.973C31.0544 80.1349 31.207 79.3963 31.5124 78.7571C31.8214 78.1143 32.2511 77.6136 32.8015 77.255C33.3555 76.8928 34.0018 76.7116 34.7404 76.7116C35.1666 76.7116 35.5874 76.7827 36.0029 76.9247C36.4183 77.0668 36.7965 77.2976 37.1374 77.6172C37.4784 77.9332 37.75 78.3523 37.9524 78.8743C38.1548 79.3963 38.2561 80.0391 38.2561 80.8026V81.3352H31.9492V80.2486H36.9776C36.9776 79.7869 36.8853 79.375 36.7007 79.0128C36.5195 78.6506 36.2603 78.3647 35.923 78.1552C35.5892 77.9457 35.195 77.8409 34.7404 77.8409C34.2397 77.8409 33.8065 77.9652 33.4407 78.2138C33.0785 78.4588 32.7997 78.7784 32.6044 79.1726C32.4091 79.5668 32.3115 79.9893 32.3115 80.4403V81.1648C32.3115 81.7827 32.418 82.3065 32.6311 82.7362C32.8477 83.1623 33.1477 83.4872 33.5313 83.7109C33.9148 83.9311 34.3605 84.0412 34.8683 84.0412C35.1985 84.0412 35.4968 83.995 35.7632 83.9027C36.033 83.8068 36.2656 83.6648 36.461 83.4766C36.6563 83.2848 36.8072 83.0469 36.9137 82.7628L38.1282 83.1037C38.0004 83.5156 37.7855 83.8778 37.4837 84.1903C37.1818 84.4993 36.809 84.7408 36.3651 84.9148C35.9212 85.0852 35.4222 85.1705 34.8683 85.1705ZM47.7453 76.8182V77.8835H43.5053V76.8182H47.7453ZM44.7411 74.858H45.9982V82.6562C45.9982 83.0114 46.0497 83.2777 46.1526 83.4553C46.2592 83.6293 46.3941 83.7464 46.5575 83.8068C46.7244 83.8636 46.9002 83.892 47.0848 83.892C47.2233 83.892 47.337 83.8849 47.4257 83.8707C47.5145 83.853 47.5855 83.8388 47.6388 83.8281L47.8945 84.9574C47.8093 84.9893 47.6903 85.0213 47.5376 85.0533C47.3849 85.0888 47.1914 85.1065 46.957 85.1065C46.6019 85.1065 46.2539 85.0302 45.9129 84.8775C45.5756 84.7248 45.295 84.4922 45.0713 84.1797C44.8512 83.8672 44.7411 83.473 44.7411 82.9972V74.858ZM52.8788 85.1705C52.0905 85.1705 51.4104 84.9964 50.8387 84.6484C50.2705 84.2969 49.8319 83.8068 49.523 83.1783C49.2176 82.5462 49.0649 81.8111 49.0649 80.973C49.0649 80.1349 49.2176 79.3963 49.523 78.7571C49.8319 78.1143 50.2616 77.6136 50.8121 77.255C51.366 76.8928 52.0123 76.7116 52.751 76.7116C53.1771 76.7116 53.5979 76.7827 54.0134 76.9247C54.4289 77.0668 54.8071 77.2976 55.148 77.6172C55.4889 77.9332 55.7606 78.3523 55.963 78.8743C56.1654 79.3963 56.2666 80.0391 56.2666 80.8026V81.3352H49.9598V80.2486H54.9882C54.9882 79.7869 54.8959 79.375 54.7112 79.0128C54.5301 78.6506 54.2709 78.3647 53.9335 78.1552C53.5997 77.9457 53.2055 77.8409 52.751 77.8409C52.2503 77.8409 51.817 77.9652 51.4513 78.2138C51.089 78.4588 50.8103 78.7784 50.615 79.1726C50.4197 79.5668 50.322 79.9893 50.322 80.4403V81.1648C50.322 81.7827 50.4285 82.3065 50.6416 82.7362C50.8582 83.1623 51.1583 83.4872 51.5418 83.7109C51.9253 83.9311 52.371 84.0412 52.8788 84.0412C53.2091 84.0412 53.5074 83.995 53.7737 83.9027C54.0436 83.8068 54.2762 83.6648 54.4715 83.4766C54.6668 83.2848 54.8177 83.0469 54.9243 82.7628L56.1388 83.1037C56.0109 83.5156 55.7961 83.8778 55.4942 84.1903C55.1924 84.4993 54.8195 84.7408 54.3756 84.9148C53.9317 85.0852 53.4328 85.1705 52.8788 85.1705ZM63.8743 78.6506L62.7451 78.9702C62.6741 78.782 62.5693 78.5991 62.4308 78.4215C62.2959 78.2404 62.1112 78.0913 61.8768 77.9741C61.6425 77.8569 61.3424 77.7983 60.9766 77.7983C60.4759 77.7983 60.0586 77.9137 59.7248 78.1445C59.3946 78.3718 59.2295 78.6612 59.2295 79.0128C59.2295 79.3253 59.3431 79.5721 59.5704 79.7532C59.7976 79.9343 60.1528 80.0852 60.6357 80.206L61.8502 80.5043C62.5817 80.6818 63.1268 80.9535 63.4855 81.3192C63.8442 81.6815 64.0235 82.1484 64.0235 82.7202C64.0235 83.1889 63.8885 83.608 63.6187 83.9773C63.3523 84.3466 62.9795 84.6378 62.5001 84.8509C62.0207 85.0639 61.4631 85.1705 60.8275 85.1705C59.993 85.1705 59.3023 84.9893 58.7554 84.6271C58.2085 84.2649 57.8623 83.7358 57.7167 83.0398L58.9099 82.7415C59.0235 83.1818 59.2383 83.5121 59.5544 83.7322C59.874 83.9524 60.2912 84.0625 60.8062 84.0625C61.3921 84.0625 61.8573 83.9382 62.2018 83.6896C62.5498 83.4375 62.7238 83.1357 62.7238 82.7841C62.7238 82.5 62.6243 82.2621 62.4255 82.0703C62.2266 81.875 61.9212 81.7294 61.5093 81.6335L60.1457 81.3139C59.3964 81.1364 58.8459 80.8612 58.4944 80.4883C58.1464 80.1119 57.9724 79.6413 57.9724 79.0767C57.9724 78.6151 58.102 78.2067 58.3612 77.8516C58.624 77.4964 58.9809 77.2177 59.4319 77.0153C59.8864 76.8129 60.4013 76.7116 60.9766 76.7116C61.7863 76.7116 62.4219 76.8892 62.8836 77.2443C63.3488 77.5994 63.679 78.0682 63.8743 78.6506ZM69.374 76.8182V77.8835H65.134V76.8182H69.374ZM66.3698 74.858H67.6269V82.6562C67.6269 83.0114 67.6784 83.2777 67.7814 83.4553C67.8879 83.6293 68.0228 83.7464 68.1862 83.8068C68.3531 83.8636 68.5289 83.892 68.7135 83.892C68.852 83.892 68.9657 83.8849 69.0544 83.8707C69.1432 83.853 69.2142 83.8388 69.2675 83.8281L69.5232 84.9574C69.438 84.9893 69.319 85.0213 69.1663 85.0533C69.0136 85.0888 68.8201 85.1065 68.5857 85.1065C68.2306 85.1065 67.8826 85.0302 67.5417 84.8775C67.2043 84.7248 66.9238 84.4922 66.7 84.1797C66.4799 83.8672 66.3698 83.473 66.3698 82.9972V74.858ZM78.9272 76.8182V77.8835H74.5167V76.8182H78.9272ZM75.8377 85V75.6889C75.8377 75.2202 75.9478 74.8295 76.168 74.517C76.3882 74.2045 76.674 73.9702 77.0256 73.8139C77.3772 73.6577 77.7483 73.5795 78.1389 73.5795C78.4478 73.5795 78.7 73.6044 78.8953 73.6541C79.0906 73.7038 79.2362 73.75 79.3321 73.7926L78.9698 74.8793C78.9059 74.858 78.8172 74.8313 78.7035 74.7994C78.5934 74.7674 78.4478 74.7514 78.2667 74.7514C77.8512 74.7514 77.5512 74.8562 77.3665 75.0657C77.1854 75.2752 77.0948 75.5824 77.0948 75.9872V85H75.8377ZM83.576 85.1705C82.8374 85.1705 82.1893 84.9947 81.6317 84.6431C81.0778 84.2915 80.6445 83.7997 80.332 83.1676C80.0231 82.5355 79.8686 81.7969 79.8686 80.9517C79.8686 80.0994 80.0231 79.3555 80.332 78.7198C80.6445 78.0842 81.0778 77.5906 81.6317 77.239C82.1893 76.8874 82.8374 76.7116 83.576 76.7116C84.3146 76.7116 84.9609 76.8874 85.5149 77.239C86.0724 77.5906 86.5057 78.0842 86.8146 78.7198C87.1271 79.3555 87.2834 80.0994 87.2834 80.9517C87.2834 81.7969 87.1271 82.5355 86.8146 83.1676C86.5057 83.7997 86.0724 84.2915 85.5149 84.6431C84.9609 84.9947 84.3146 85.1705 83.576 85.1705ZM83.576 84.0412C84.1371 84.0412 84.5987 83.8974 84.9609 83.6097C85.3232 83.3221 85.5913 82.9439 85.7653 82.4751C85.9393 82.0064 86.0263 81.4986 86.0263 80.9517C86.0263 80.4048 85.9393 79.8952 85.7653 79.4229C85.5913 78.9506 85.3232 78.5689 84.9609 78.2777C84.5987 77.9865 84.1371 77.8409 83.576 77.8409C83.0149 77.8409 82.5533 77.9865 82.1911 78.2777C81.8288 78.5689 81.5607 78.9506 81.3867 79.4229C81.2127 79.8952 81.1257 80.4048 81.1257 80.9517C81.1257 81.4986 81.2127 82.0064 81.3867 82.4751C81.5607 82.9439 81.8288 83.3221 82.1911 83.6097C82.5533 83.8974 83.0149 84.0412 83.576 84.0412ZM89.1023 85V76.8182H90.3168V78.054H90.402C90.5512 77.6491 90.8211 77.3207 91.2117 77.0685C91.6023 76.8164 92.0427 76.6903 92.5327 76.6903C92.6251 76.6903 92.7405 76.6921 92.879 76.6957C93.0175 76.6992 93.1222 76.7045 93.1932 76.7116V77.9901C93.1506 77.9794 93.053 77.9634 92.9003 77.9421C92.7511 77.9173 92.5931 77.9048 92.4262 77.9048C92.0285 77.9048 91.6734 77.9883 91.3609 78.1552C91.0519 78.3185 90.8069 78.5458 90.6258 78.837C90.4482 79.1246 90.3594 79.4531 90.3594 79.8224V85H89.1023ZM102.346 76.8182V77.8835H97.9351V76.8182H102.346ZM99.2561 85V75.6889C99.2561 75.2202 99.3662 74.8295 99.5864 74.517C99.8065 74.2045 100.092 73.9702 100.444 73.8139C100.796 73.6577 101.167 73.5795 101.557 73.5795C101.866 73.5795 102.118 73.6044 102.314 73.6541C102.509 73.7038 102.655 73.75 102.75 73.7926L102.388 74.8793C102.324 74.858 102.236 74.8313 102.122 74.7994C102.012 74.7674 101.866 74.7514 101.685 74.7514C101.27 74.7514 100.97 74.8562 100.785 75.0657C100.604 75.2752 100.513 75.5824 100.513 75.9872V85H99.2561ZM104.007 85V76.8182H105.222V78.054H105.307C105.456 77.6491 105.726 77.3207 106.117 77.0685C106.507 76.8164 106.948 76.6903 107.438 76.6903C107.53 76.6903 107.646 76.6921 107.784 76.6957C107.923 76.6992 108.027 76.7045 108.098 76.7116V77.9901C108.056 77.9794 107.958 77.9634 107.805 77.9421C107.656 77.9173 107.498 77.9048 107.331 77.9048C106.934 77.9048 106.578 77.9883 106.266 78.1552C105.957 78.3185 105.712 78.5458 105.531 78.837C105.353 79.1246 105.265 79.4531 105.265 79.8224V85H104.007ZM112.67 85.1705C111.881 85.1705 111.201 84.9964 110.63 84.6484C110.062 84.2969 109.623 83.8068 109.314 83.1783C109.009 82.5462 108.856 81.8111 108.856 80.973C108.856 80.1349 109.009 79.3963 109.314 78.7571C109.623 78.1143 110.053 77.6136 110.603 77.255C111.157 76.8928 111.803 76.7116 112.542 76.7116C112.968 76.7116 113.389 76.7827 113.804 76.9247C114.22 77.0668 114.598 77.2976 114.939 77.6172C115.28 77.9332 115.552 78.3523 115.754 78.8743C115.956 79.3963 116.058 80.0391 116.058 80.8026V81.3352H109.751V80.2486H114.779C114.779 79.7869 114.687 79.375 114.502 79.0128C114.321 78.6506 114.062 78.3647 113.725 78.1552C113.391 77.9457 112.997 77.8409 112.542 77.8409C112.041 77.8409 111.608 77.9652 111.242 78.2138C110.88 78.4588 110.601 78.7784 110.406 79.1726C110.211 79.5668 110.113 79.9893 110.113 80.4403V81.1648C110.113 81.7827 110.22 82.3065 110.433 82.7362C110.649 83.1623 110.949 83.4872 111.333 83.7109C111.716 83.9311 112.162 84.0412 112.67 84.0412C113 84.0412 113.298 83.995 113.565 83.9027C113.835 83.8068 114.067 83.6648 114.263 83.4766C114.458 83.2848 114.609 83.0469 114.715 82.7628L115.93 83.1037C115.802 83.5156 115.587 83.8778 115.285 84.1903C114.983 84.4993 114.611 84.7408 114.167 84.9148C113.723 85.0852 113.224 85.1705 112.67 85.1705ZM121.3 85.1705C120.512 85.1705 119.832 84.9964 119.26 84.6484C118.692 84.2969 118.253 83.8068 117.944 83.1783C117.639 82.5462 117.486 81.8111 117.486 80.973C117.486 80.1349 117.639 79.3963 117.944 78.7571C118.253 78.1143 118.683 77.6136 119.234 77.255C119.788 76.8928 120.434 76.7116 121.172 76.7116C121.599 76.7116 122.019 76.7827 122.435 76.9247C122.85 77.0668 123.229 77.2976 123.569 77.6172C123.91 77.9332 124.182 78.3523 124.384 78.8743C124.587 79.3963 124.688 80.0391 124.688 80.8026V81.3352H118.381V80.2486H123.41C123.41 79.7869 123.317 79.375 123.133 79.0128C122.952 78.6506 122.692 78.3647 122.355 78.1552C122.021 77.9457 121.627 77.8409 121.172 77.8409C120.672 77.8409 120.239 77.9652 119.873 78.2138C119.511 78.4588 119.232 78.7784 119.036 79.1726C118.841 79.5668 118.743 79.9893 118.743 80.4403V81.1648C118.743 81.7827 118.85 82.3065 119.063 82.7362C119.28 83.1623 119.58 83.4872 119.963 83.7109C120.347 83.9311 120.792 84.0412 121.3 84.0412C121.631 84.0412 121.929 83.995 122.195 83.9027C122.465 83.8068 122.698 83.6648 122.893 83.4766C123.088 83.2848 123.239 83.0469 123.346 82.7628L124.56 83.1037C124.432 83.5156 124.218 83.8778 123.916 84.1903C123.614 84.4993 123.241 84.7408 122.797 84.9148C122.353 85.0852 121.854 85.1705 121.3 85.1705ZM131.876 80.0781V85H130.619V76.8182H131.834V78.0966H131.94C132.132 77.6811 132.423 77.3473 132.814 77.0952C133.204 76.8395 133.709 76.7116 134.327 76.7116C134.88 76.7116 135.365 76.8253 135.781 77.0526C136.196 77.2763 136.519 77.6172 136.75 78.0753C136.981 78.5298 137.096 79.1051 137.096 79.8011V85H135.839V79.8864C135.839 79.2436 135.672 78.7429 135.339 78.3842C135.005 78.022 134.547 77.8409 133.964 77.8409C133.563 77.8409 133.204 77.9279 132.888 78.1019C132.576 78.2759 132.329 78.5298 132.148 78.8636C131.967 79.1974 131.876 79.6023 131.876 80.0781ZM142.617 85.1705C141.879 85.1705 141.231 84.9947 140.673 84.6431C140.119 84.2915 139.686 83.7997 139.373 83.1676C139.064 82.5355 138.91 81.7969 138.91 80.9517C138.91 80.0994 139.064 79.3555 139.373 78.7198C139.686 78.0842 140.119 77.5906 140.673 77.239C141.231 76.8874 141.879 76.7116 142.617 76.7116C143.356 76.7116 144.002 76.8874 144.556 77.239C145.114 77.5906 145.547 78.0842 145.856 78.7198C146.169 79.3555 146.325 80.0994 146.325 80.9517C146.325 81.7969 146.169 82.5355 145.856 83.1676C145.547 83.7997 145.114 84.2915 144.556 84.6431C144.002 84.9947 143.356 85.1705 142.617 85.1705ZM142.617 84.0412C143.178 84.0412 143.64 83.8974 144.002 83.6097C144.365 83.3221 144.633 82.9439 144.807 82.4751C144.981 82.0064 145.068 81.4986 145.068 80.9517C145.068 80.4048 144.981 79.8952 144.807 79.4229C144.633 78.9506 144.365 78.5689 144.002 78.2777C143.64 77.9865 143.178 77.8409 142.617 77.8409C142.056 77.8409 141.595 77.9865 141.232 78.2777C140.87 78.5689 140.602 78.9506 140.428 79.4229C140.254 79.8952 140.167 80.4048 140.167 80.9517C140.167 81.4986 140.254 82.0064 140.428 82.4751C140.602 82.9439 140.87 83.3221 141.232 83.6097C141.595 83.8974 142.056 84.0412 142.617 84.0412ZM149.719 85L147.226 76.8182H148.547L150.316 83.0824H150.401L152.148 76.8182H153.49L155.216 83.0611H155.301L157.07 76.8182H158.391L155.898 85H154.662L152.873 78.7145H152.745L150.955 85H149.719ZM161.615 74.0909L161.508 81.9318H160.273L160.166 74.0909H161.615ZM160.89 85.0852C160.628 85.0852 160.402 84.9911 160.214 84.8029C160.026 84.6147 159.932 84.3892 159.932 84.1264C159.932 83.8636 160.026 83.6381 160.214 83.4499C160.402 83.2617 160.628 83.1676 160.89 83.1676C161.153 83.1676 161.379 83.2617 161.567 83.4499C161.755 83.6381 161.849 83.8636 161.849 84.1264C161.849 84.3004 161.805 84.4602 161.716 84.6058C161.631 84.7514 161.515 84.8686 161.37 84.9574C161.228 85.0426 161.068 85.0852 160.89 85.0852Z" fill="#BDBCC0"/>
<path fill-rule="evenodd" clip-rule="evenodd" d="M332.238 57.7663C328.617 54.1452 324.221 52.3354 319.134 52.3354C314.048 52.3354 309.652 54.1452 306.031 57.7663C302.41 61.3874 300.6 65.7833 300.6 70.8697C300.6 75.9561 302.41 80.3521 306.031 83.9732C309.652 87.5943 314.048 89.4041 319.134 89.4041C324.221 89.4041 328.617 87.5943 332.238 83.9732C335.859 80.3521 337.669 75.9561 337.669 70.8697C337.669 65.7833 335.859 61.3874 332.238 57.7663ZM330.944 82.7652C327.669 86.0404 323.703 87.6786 319.134 87.6786C314.565 87.6786 310.6 86.0404 307.325 82.7652C303.962 79.49 302.324 75.5244 302.324 70.8683C302.324 66.2994 303.962 62.3338 307.325 59.0586C310.6 55.7835 314.565 54.1452 319.134 54.1452C323.703 54.1452 327.669 55.7835 331.031 59.0586C334.306 62.3338 335.945 66.2994 335.945 70.8683C335.859 75.523 334.221 79.4886 330.944 82.7652ZM312.927 49.7479C312.927 49.1446 313.272 48.8 313.875 48.8H324.392C324.996 48.8 325.34 49.1446 325.34 49.7479C325.34 50.3511 324.996 50.6099 324.392 50.6099H313.875C313.272 50.6099 312.927 50.3511 312.927 49.7479ZM334.651 55.3518C334.306 55.0072 334.133 54.5755 334.133 54.1452C334.133 53.7149 334.306 53.2832 334.651 52.8515C334.995 52.5069 335.427 52.334 335.945 52.334C336.375 52.334 336.807 52.5069 337.151 52.8515C337.496 53.2818 337.669 53.7135 337.669 54.1452C337.669 54.5769 337.496 55.0072 337.151 55.3518C336.807 55.6963 336.375 55.8693 335.945 55.8693C335.427 55.8693 334.997 55.6963 334.651 55.3518ZM328.531 61.559C328.704 61.9035 328.79 62.0765 328.79 62.1622C328.79 62.248 328.704 62.421 328.531 62.7655L321.547 69.749C321.72 70.0935 321.806 70.438 321.806 70.8697V70.9555C321.806 71.7318 321.547 72.335 321.03 72.8525C320.512 73.37 319.909 73.6288 319.133 73.6288C318.357 73.6288 317.753 73.37 317.236 72.8525C316.718 72.335 316.46 71.7318 316.46 70.9555C316.46 70.1793 316.718 69.576 317.236 69.0585C317.753 68.541 318.357 68.2822 319.133 68.2822C319.563 68.2822 319.909 68.368 320.254 68.541L327.237 61.5575C327.41 61.3846 327.582 61.2988 327.84 61.2988C328.099 61.2988 328.358 61.3846 328.53 61.5575L328.531 61.559Z" fill="white"/>
</svg>
