<svg width="44" height="44" viewBox="0 0 44 44" fill="none" xmlns="http://www.w3.org/2000/svg">
<path fill-rule="evenodd" clip-rule="evenodd" d="M18.4 17.5082C18.4 16.4357 18.7831 15.5157 19.5494 14.7495C20.3156 13.9832 21.235 13.6001 22.3081 13.6001C23.4194 13.6001 24.3387 13.9832 25.105 14.7495C25.8713 15.5157 26.2544 16.4351 26.2544 17.5082C26.2544 18.6195 25.8713 19.5388 25.105 20.3051C24.3387 21.0713 23.4194 21.4545 22.3081 21.4545C21.2356 21.4545 20.3156 21.0713 19.5494 20.3051C18.7831 19.5388 18.4 18.6195 18.4 17.5082ZM22.2831 22.2207C24.0075 22.2207 25.5013 22.8338 26.7275 24.0601C27.9538 25.2863 28.5669 26.7801 28.5669 28.5045V28.8876C28.5669 29.1557 28.4519 29.3088 28.1838 29.3088H16.4213C16.1531 29.3088 16 29.1557 16 28.8876V28.5045C16 26.7801 16.6131 25.3245 17.8394 24.0982C19.1038 22.8338 20.5594 22.2207 22.2838 22.2207H22.2831Z" fill="white"/>
</svg>
